<svg xmlns="http://www.w3.org/2000/svg" xmlns:xlink="http://www.w3.org/1999/xlink" viewBox="0 0 4680 3120"><defs><style>.cls-1{fill:#f7ede2;}.cls-2{fill:#d8efed;}.cls-3{fill:#f7f9f6;}.cls-4{fill:#1263ad;}.cls-5{fill:#055999;}.cls-6{fill:#8799a3;}.cls-7{fill:#8cc6d3;}.cls-8{fill:#a0c146;}.cls-9{fill:#43555f;}.cls-10{fill:#248cc6;}.cls-11{fill:#bcd16f;}.cls-12,.cls-46,.cls-61,.cls-65{fill:#fff;}.cls-13{fill:#f7ada4;}.cls-14{fill:#7a2944;}.cls-15{fill:#bf6c21;}.cls-16,.cls-44{fill:#f7b94b;}.cls-17{fill:#7a3c4e;}.cls-18{fill:#ffb6b0;}.cls-19{fill:#d4e8f4;}.cls-20{fill:#e29f33;}.cls-21{fill:#025090;}.cls-22{fill:#f65e51;}.cls-23{fill:#1e85a5;}.cls-24{fill:#81a532;}.cls-25{fill:#e02f27;}.cls-26{fill:#bc9980;}.cls-27{fill:#f7eae8;}.cls-28{fill:#b5d781;}.cls-29{fill:#65a6cc;}.cls-30{clip-path:url(#clip-path);}.cls-31,.cls-46{opacity:0.48;}.cls-32{fill:#e2bf7f;}.cls-33{fill:#efddcb;}.cls-34{fill:#af8b87;}.cls-35{fill:#ccada8;}.cls-36{clip-path:url(#clip-path-2);}.cls-138,.cls-144,.cls-149,.cls-37,.cls-49,.cls-54,.cls-81,.cls-83,.cls-86,.cls-89{fill:none;}.cls-37{stroke:#3c697f;stroke-miterlimit:10;stroke-width:13px;}.cls-38{fill:#3c697f;}.cls-39{fill:#799914;}.cls-40{fill:#3482b2;}.cls-41{fill:#8aa7b2;}.cls-42{clip-path:url(#clip-path-3);}.cls-43,.cls-44{opacity:0.51;}.cls-45{clip-path:url(#clip-path-4);}.cls-47{fill:#507199;opacity:0.31;}.cls-48{clip-path:url(#clip-path-5);}.cls-49{stroke:#779b31;}.cls-138,.cls-144,.cls-149,.cls-49,.cls-54,.cls-83,.cls-86,.cls-89{stroke-linecap:round;}.cls-138,.cls-144,.cls-149,.cls-49,.cls-54,.cls-81,.cls-83,.cls-86,.cls-89{stroke-linejoin:round;}.cls-49,.cls-54{stroke-width:11px;}.cls-50{fill:#779b31;}.cls-51{clip-path:url(#clip-path-6);}.cls-52{clip-path:url(#clip-path-7);}.cls-53{fill:#94ba52;opacity:0.54;}.cls-54{stroke:#94ba52;}.cls-55{clip-path:url(#clip-path-8);}.cls-56{clip-path:url(#clip-path-9);}.cls-57{fill:#428db2;}.cls-58{clip-path:url(#clip-path-10);}.cls-59{fill:#d3cdae;}.cls-60{clip-path:url(#clip-path-11);}.cls-61{opacity:0.44;}.cls-62{fill:#e84949;}.cls-63{fill:#f48282;}.cls-64{fill:#b25959;}.cls-65{opacity:0.61;}.cls-66{clip-path:url(#clip-path-12);}.cls-67{fill:#0c568e;}.cls-68{fill:#053b4c;}.cls-69{clip-path:url(#clip-path-13);}.cls-70{fill:#014772;}.cls-71{fill:#348193;}.cls-72{fill:#5199af;}.cls-73{clip-path:url(#clip-path-14);}.cls-74{fill:#5c7b89;}.cls-75{clip-path:url(#clip-path-15);}.cls-76{fill:#63b3c1;}.cls-77{clip-path:url(#clip-path-16);}.cls-78,.cls-88{fill:#738922;}.cls-78{opacity:0.42;}.cls-79{clip-path:url(#clip-path-17);}.cls-80,.cls-82{fill:#32444c;}.cls-81,.cls-83{stroke:#32444c;}.cls-81,.cls-83,.cls-89{stroke-width:8px;}.cls-82{opacity:0.7;}.cls-84{clip-path:url(#clip-path-18);}.cls-85{fill:#053272;}.cls-143,.cls-85{opacity:0.55;}.cls-86{stroke:#fff;opacity:0.35;}.cls-149,.cls-86{stroke-width:5px;}.cls-87{clip-path:url(#clip-path-19);}.cls-88{opacity:0.22;}.cls-89{stroke:#63a538;opacity:0.33;}.cls-90{fill:#89a329;}.cls-91{clip-path:url(#clip-path-20);}.cls-92{fill:#ea8b83;}.cls-93{fill:#591929;}.cls-94{clip-path:url(#clip-path-21);}.cls-95{clip-path:url(#clip-path-22);}.cls-96{clip-path:url(#clip-path-23);}.cls-97{fill:#e5817f;}.cls-98{fill:#013666;}.cls-99{fill:#01253f;}.cls-100,.cls-101{fill:#e26a61;}.cls-101{opacity:0.64;}.cls-102{clip-path:url(#clip-path-24);}.cls-103{fill:#5b1731;}.cls-104{clip-path:url(#clip-path-25);}.cls-105{clip-path:url(#clip-path-26);}.cls-106{fill:#873e08;}.cls-107{fill:#8c4206;}.cls-108{clip-path:url(#clip-path-27);}.cls-109{fill:#e0941b;}.cls-110{clip-path:url(#clip-path-28);}.cls-111{fill:#4f1d2e;}.cls-112{fill:#d38d1e;}.cls-113{clip-path:url(#clip-path-29);}.cls-114{clip-path:url(#clip-path-30);}.cls-115{fill:#ea8681;}.cls-116{fill:#edf2f9;}.cls-117{fill:#ffcd38;}.cls-118{fill:#ff992c;}.cls-119{clip-path:url(#clip-path-31);}.cls-120{clip-path:url(#clip-path-32);}.cls-121{fill:#ef8e89;}.cls-122{fill:#c97d0e;}.cls-123{fill:#003451;}.cls-124{clip-path:url(#clip-path-33);}.cls-125{clip-path:url(#clip-path-34);}.cls-126{clip-path:url(#clip-path-35);}.cls-127{fill:#013e68;}.cls-128{clip-path:url(#clip-path-36);}.cls-129{fill:#e23a33;}.cls-130{clip-path:url(#clip-path-37);}.cls-131{clip-path:url(#clip-path-38);}.cls-132{fill:#0e6a7f;}.cls-133{clip-path:url(#clip-path-39);}.cls-134{clip-path:url(#clip-path-40);}.cls-135{clip-path:url(#clip-path-41);}.cls-136{clip-path:url(#clip-path-42);}.cls-137{fill:#bc1313;}.cls-138{stroke:#591929;stroke-width:2px;}.cls-139{fill:#e56c65;}.cls-140{fill:#c9ad99;}.cls-141{clip-path:url(#clip-path-43);}.cls-142{clip-path:url(#clip-path-44);}.cls-143{fill:#b79898;}.cls-144{stroke:#bc9980;stroke-width:12px;opacity:0.56;}.cls-145{fill:#5897c6;}.cls-146{fill:url(#linear-gradient);}.cls-147{fill:url(#linear-gradient-2);}.cls-148{fill:#3680ad;}.cls-149{stroke:#bdcad1;}.cls-150{fill:#f5de19;}</style><clipPath id="clip-path"><path class="cls-1" d="M904,2514.2s-119.41-108.38-176.3-375.71S592.77,1168.25,1053.64,681s1542-502.41,2224.08,229.41,820.16,1155.31,654.65,1597.66Z"/></clipPath><clipPath id="clip-path-2"><polygon class="cls-2" points="3818.53 1843.04 2808.95 1696.15 2808.95 791.93 3818.53 908.63 3818.53 1843.04"/></clipPath><clipPath id="clip-path-3"><path class="cls-12" d="M2941.24,1349.21l271.13,36.53a36.5,36.5,0,0,1,31.63,36.17v243.81a36.5,36.5,0,0,1-41.62,36.14l-271.13-38.43a36.5,36.5,0,0,1-31.38-36.15V1385.39A36.5,36.5,0,0,1,2941.24,1349.21Z"/></clipPath><clipPath id="clip-path-4"><ellipse class="cls-19" cx="2371.47" cy="2568.87" rx="1622.91" ry="216.13"/></clipPath><clipPath id="clip-path-5"><path class="cls-24" d="M3549.24,2420.3s-21.79-120.38-65.38-287.46-59.48-260.82,20.07-268.43,111.73,207.2,107.58,306.83-27,249.06-27,249.06Z"/></clipPath><clipPath id="clip-path-6"><path class="cls-24" d="M3572.05,2393.92c-.54-7.09,86.64-350.33,177.7-407.14s126.09,45.92,59.15,126.08S3603.43,2404,3603.43,2404Z"/></clipPath><clipPath id="clip-path-7"><path class="cls-28" d="M3544,2404s39.69-347.79,68.49-472.38,154.89-102.79,142.44-25.74-74.64,214.82-105,302.77S3579,2404,3579,2404Z"/></clipPath><clipPath id="clip-path-8"><path class="cls-28" d="M3527.14,2402s-108.3-192.17-166.69-256.16-15.85-168.75,74.09-135.8,127.23,386.77,127.23,386.77Z"/></clipPath><clipPath id="clip-path-9"><path class="cls-29" d="M3468.23,2420.3,3497,2590.75s28,16.35,74.72,17.12,79.39-17.12,79.39-17.12l28.8-170.45Z"/></clipPath><clipPath id="clip-path-10"><rect class="cls-29" x="3447.71" y="2386.83" width="250.1" height="45.55" rx="22.77"/></clipPath><clipPath id="clip-path-11"><ellipse class="cls-3" cx="2165" cy="1752.01" rx="1000.52" ry="105.22"/></clipPath><clipPath id="clip-path-12"><path class="cls-4" d="M1137.23,1817.41l28.46,9s289,46,329.4,56.71,184.8,359.7,184.8,359.7l-105.26,42s-133.85-294.17-165.43-300-378.62-92.61-378.62-92.61Z"/></clipPath><clipPath id="clip-path-13"><path class="cls-5" d="M1094.8,1260s19.27,0,35.27-37.47-39.58-71.16-60.21-53.47c0,0-32.84-35.79-93-14.74s-67.93,82.1-61.61,110.73,72.15,41.26,87.93,39.16S1094.8,1260,1094.8,1260Z"/></clipPath><clipPath id="clip-path-14"><rect class="cls-6" x="1097.79" y="2043.36" width="33.91" height="418.36"/></clipPath><clipPath id="clip-path-15"><path class="cls-7" d="M843.05,1505.46c67.49,29.24,37.35,243.43,69.79,354.09S1017,1961.2,1163.48,1969.06s193.24,5.34,190.68,76.67-338.12,77.65-456.07,7.86S810.62,1799,807.67,1702.33s-2.3-160.17-34.73-163.78-44.43-8.86-45.21-33.09C727.73,1505.46,728.44,1455.8,843.05,1505.46Z"/></clipPath><clipPath id="clip-path-16"><path class="cls-8" d="M1093,1464.59l5.06,3.64s57.19,55.66,57.84,63.52-.33,14.09-12.12,29.16-41.94,21.63-41.94,21.63Z"/></clipPath><clipPath id="clip-path-17"><path class="cls-9" d="M1650.66,2236.93l35.08,65.56s79.14,19.52,113.25,18,35.9,40.54,34.83,56.8-210.29,57.73-221.94,41.36-12.25-82.42-8.16-91.94-30.45-52.91-30.45-52.91Z"/></clipPath><clipPath id="clip-path-18"><path class="cls-10" d="M981.15,1961.28l12.29,23.59s28,14.25,97.79,20.15,246.22,15.73,246.22,15.73L1267.66,2268l108.12,7.86s43.25-113,68.81-190.68,60-163.82-8.52-176.27-333.53-52.09-333.53-52.09L1021,1902Z"/></clipPath><clipPath id="clip-path-19"><path class="cls-11" d="M983.69,1411.92l-2.05.9a717.89,717.89,0,0,0-79.58,33.51c-12.78,14,0,190.59,1.68,230.4s-14.66,249.66,89.7,308.14c0,0,3.93-44.23,37.84-64.87s100-94.6,134.41-93.62c0,0-41.53-26.79-45.46-115.74s-21.62-213.78-21.62-238.35-57.62-54.55-57.62-54.55Z"/></clipPath><clipPath id="clip-path-20"><path class="cls-13" d="M1097.62,1251.63s12.2,87.49-9.92,110.66c-22.9,24-48.4-9.1-51.34-1.89s-1.64,60.29-1.64,60.29-22.61,10.81-49.48-9.51V1360s20.24-7.65,16.3-23.83c-17.69-15.48-15-36.56-3.17-43s62.15-20.7,70.75-62.71C1069.12,1230.5,1079.19,1249.91,1097.62,1251.63Z"/></clipPath><clipPath id="clip-path-21"><path class="cls-8" d="M936.82,1453.72c-14-18.9-47.89-5.91-83.72,13.32s-67.19,37-67.19,37-5.26,17.46,14,43.56,38.26,20.81,38.26,20.81,44.88-28.66,71.13-48.23S951.15,1473,936.82,1453.72Z"/></clipPath><clipPath id="clip-path-22"><path class="cls-9" d="M1349.08,2303.12l-3.27,34.4s73.71,34.76,107.46,40,27.19,46.83,22.93,62.56-217.55,15.07-225.74-3.28,4.26-83.22,10.16-91.74,7-48.27,7-48.27Z"/></clipPath><clipPath id="clip-path-23"><path class="cls-13" d="M1357,2332.52c-1.48,0-11.21,5-11.21,5s-8.94,10-35,13.43-55.53-15.23-55.53-15.23l-2-51.85,105.42,12.91Z"/></clipPath><clipPath id="clip-path-24"><path class="cls-14" d="M2708.33,2260.35s3.16,41.45,10.26,49.54,107.75,24.26,114.06,50.32,1.58,47.37-34,48.95-139.15,7.53-147-6.68-9-69.49,0-75.8-1.84-42.82-1.84-42.82Z"/></clipPath><clipPath id="clip-path-25"><path class="cls-14" d="M2507.17,2259.22s-8,40.79-3.34,50.49,97.35,52.14,96.48,78.94-11.13,46.08-45.8,38.11-136.11-29.9-139.92-45.71,9.85-69.37,20.24-73.05,9.66-41.75,9.66-41.75Z"/></clipPath><clipPath id="clip-path-26"><path class="cls-15" d="M2708.47,1487.45s17.06,352.43,21.32,440.59,22.76,354.07,22.76,354.07-64.47,47.4-131.77,3.79l-36-525.64-16,526.11s-60.78,59.72-137.56-1.42c0,0,2.84-315.67,0-442.22s-19.2-269.22,5-352.17Z"/></clipPath><clipPath id="clip-path-27"><path class="cls-16" d="M2603.4,1040.91s78,13,108.38,20.54,41.48,29.07,62.81,83.82S2835.73,1318,2835.73,1318l-78.45,44L2725,1263s-11.53,154.62-16.5,203.68c0,0-22.76,27.72-118.74,19.19S2439,1461.65,2439,1461.65v-75.36l-86-7.59s14.88-137.94,22.28-193.62c7.82-58.84,16.75-97.26,45.72-115.41,35.55-22.28,93.94-32.23,93.94-32.23Z"/></clipPath><clipPath id="clip-path-28"><path class="cls-17" d="M2650.8,873.12c.95-.63,38.86-7,47.71-43.6s-34.44-54-34.44-54-8.85-34.44-51.51-40.13-38.55,21.81-55.93,22.12-43-9.48-67,16.12-10.75,29.7-21.81,46.45-27.8,34.76-13.9,62.25,32.23,42.34,33.18,56.56,28.12,27.17,47.08,23.07,30.65-9.48,30.65-9.48l27.81-21.81Z"/></clipPath><clipPath id="clip-path-29"><path class="cls-18" d="M2658.7,851s2.84,58.15,0,92.9-23.39,61-64.15,43v46.76s-4.74,23.07-29.7,18-28.75-17.38-28.75-17.38l-1.9-72.36s20.85-5.38,10.74-25-16.11-28.44-1-38.86,22.76-11.38,21.49-28.76,25.91,0,38.55-11.06S2651.11,828.57,2658.7,851Z"/></clipPath><clipPath id="clip-path-30"><path class="cls-18" d="M2821.82,1315.5l20.85,30.65s159.89-88.79,193.39-113.44,55.61-43,92.9-50.24,45.5,17.69,27.17,43-79.63,50.88-91.32,42.66c0,0-198,159.18-230.75,162.73s-73.7-80.28-73.7-80.28Z"/></clipPath><clipPath id="clip-path-31"><path class="cls-20" d="M2448.31,2434.16s-21.08,50-27.75,64-25.28,28.31-33.9,46.61-30.33,86-30.33,86l18.47,8,18.51-29.17s28.78,46.77,37.41,57.06,90.89,45.77,96.57,38.24,22-33.18,19.11-44.07-30.35-42.78-39.79-57.55-32.82-59.35-30.29-67.55,33.47-71.34,33.47-71.34Z"/></clipPath><clipPath id="clip-path-32"><path class="cls-18" d="M2412.28,2492s29.37,32.72,87.64,38.35.62-1.44.62-1.44l30.29-79.17-92.48-24.27Z"/></clipPath><clipPath id="clip-path-33"><path class="cls-20" d="M2585.64,2480.77s.55,54.26,0,69.74-11.93,36-12.56,56.25,6.4,91,6.4,91h20.14l5.37-34.12s45,31.46,57,37.47,101.6,5.82,103.81-3.35,7-39.18,0-48-44.87-27.17-59.41-37-53.71-41.39-54.66-49.92,2.32-78.76,2.32-78.76Z"/></clipPath><clipPath id="clip-path-34"><path class="cls-18" d="M2575.59,2548.17s40,18.33,95.67.31,0-1.58,0-1.58l-3.71-84.68L2573,2476.76Z"/></clipPath><clipPath id="clip-path-35"><path class="cls-21" d="M2345.09,2083.49s152.62-8.53,237-14.22,110,52.14,105.22,139.35-28.44,283.44-28.44,283.44-31.28,36-76.78,0c0,0-8.06-132.24-10.9-180.58s9-104.28,9-104.28l-210.86,9.51S2330.39,2148,2345.09,2083.49Z"/></clipPath><clipPath id="clip-path-36"><path class="cls-22" d="M2158.41,1627.3c.48,1.43,2.61,8.3,2.61,8.3s48.35-.24,97.4,15.4c28,8.93,23.46,37.45,41.95,79.39s20.62,81.06,0,98.12-3.89,125.68,2.13,140.06c12.8,30.57,45.55,82.47,45.5,100.25-.14,59.73,2.14,76.78-6.39,76.78s-110,2.85-110,2.85l-82.65-19.2-35.55-107.36-4.26-370.41,21.09-24.18Z"/></clipPath><clipPath id="clip-path-37"><path class="cls-18" d="M2222,1423.26s4.74,70.78,5.69,105.85-16.11,58.14-68.88,44.24l2.21,62.25s-19.28,13.9-31.28,5.37-37-57.17-37-57.17l-14.54-70.17,16.12-71.73Z"/></clipPath><clipPath id="clip-path-38"><path class="cls-23" d="M2153,1355c4.57,3.49,34.11-8,63.49,19.44s11.85,63.51-18,85.79a344.38,344.38,0,0,1-60.19,35.54v228.94s-162.1,68.25-190.54-86.27c0,0,19.91-105.22,25.59-155.46s10-87.21,53.56-124.66S2133.09,1339.84,2153,1355Z"/></clipPath><clipPath id="clip-path-39"><path class="cls-6" d="M2129,2619.39s-7.12,8-17.84,8.06c-13.16.11-17.83-8.06-17.83-8.06V2252.53H2129Z"/></clipPath><clipPath id="clip-path-40"><path class="cls-7" d="M1824,1956.48c1.63,110.9-3.56,281.55,51.19,316.38s50.48,19.91,251,19.91,265.9,6.4,283-17.06,20.14-107.83,16.35-132.95-19-43.13-104.28-43.13-123.23,4.26-139.82-12.8-12.56-47.87-12.56-124.66-5.69-174.19-12.8-229.64-26.84-115.89-66.38-133.66-172.5-26.31-274.88,0-84.61,109-45.51,140.85S1822.15,1830,1824,1956.48Z"/></clipPath><clipPath id="clip-path-41"><path class="cls-18" d="M2395.64,1726.13s91,25.77,103.8,13.59,89.11-118.34,93.85-135.4,24-51.16,70.69-61.62,77.19-1,79.09,18-101.44,66.59-101.44,66.59-72,151.12-107.59,177.67-158.78-18.65-158.78-18.65S2374.78,1755.52,2395.64,1726.13Z"/></clipPath><clipPath id="clip-path-42"><path class="cls-25" d="M2265.93,1664.35c.47-.88,7-4.53,7-4.53l128.56,55.41s10.12,70.78-32.23,89.74l-96.06-30S2246,1701.32,2265.93,1664.35Z"/></clipPath><clipPath id="clip-path-43"><circle class="cls-26" cx="1674.94" cy="1060.44" r="239.98"/></clipPath><clipPath id="clip-path-44"><circle class="cls-27" cx="1690.33" cy="1063.43" r="239.98"/></clipPath><linearGradient id="linear-gradient" x1="1632.48" y1="923.34" x2="1635.82" y2="692.92" gradientUnits="userSpaceOnUse"><stop offset="0" stop-color="#fff" stop-opacity="0"/><stop offset="0.27" stop-color="#fff3e4" stop-opacity="0.02"/><stop offset="0.61" stop-color="#ffd296" stop-opacity="0.09"/><stop offset="1" stop-color="#ff9b16" stop-opacity="0.19"/><stop offset="1" stop-color="#ff9a15" stop-opacity="0.19"/></linearGradient><linearGradient id="linear-gradient-2" x1="2181.03" y1="931.29" x2="2184.37" y2="700.87" xlink:href="#linear-gradient"/></defs><g id="_10" data-name="10"><rect id="_10-2" data-name="10" class="cls-12" width="4680" height="3120"/><path class="cls-1" d="M904,2514.2s-119.41-108.38-176.3-375.71S592.77,1168.25,1053.64,681s1542-502.41,2224.08,229.41,820.16,1155.31,654.65,1597.66Z"/><g class="cls-30"><g class="cls-31"><rect class="cls-32" x="487.44" y="1771.45" width="3810.8" height="100.49"/></g><path class="cls-33" d="M2730.07,362.49s401.67,916,141,1362.34S579.82,1899.5,579.82,1899.5s-225.2,512.34-41.5,710.53,2047.45,294.6,2047.45,294.6,1388.41,46.19,1610-86.73c154.63-92.78,199.38-406.15-120.76-960.66C3686,1183.51,2730.07,362.49,2730.07,362.49Z"/></g><polygon class="cls-34" points="2793.31 698.41 2753.49 732.53 2765.34 759.08 2793.31 788.59 2793.31 1705.29 3834.77 1856.81 3873.98 1897.49 3913.8 1868.31 3913.8 831.24 2793.31 698.41"/><polygon class="cls-35" points="3873.98 1902.44 2753.49 1739.41 2753.49 732.53 3873.98 865.37 3873.98 1902.44"/><polygon class="cls-2" points="3818.53 1843.04 2808.95 1696.15 2808.95 791.93 3818.53 908.63 3818.53 1843.04"/><g class="cls-36"><rect class="cls-34" x="2763.45" y="758.36" width="68.25" height="972.75"/></g><path class="cls-37" d="M3378.32,1495.84l-64.07-8.08a18.62,18.62,0,0,1-15.94-17.94v-64.08c0-8.8,7.14-15,15.94-13.93l64.07,8.08a18.62,18.62,0,0,1,15.94,17.94v64.08C3394.26,1490.71,3387.12,1496.94,3378.32,1495.84Z"/><path class="cls-38" d="M3551.28,1440.68l-121.63-15.33a8.89,8.89,0,0,1-7.61-8.56h0a6.57,6.57,0,0,1,7.61-6.65l121.63,15.33a8.88,8.88,0,0,1,7.6,8.56h0A6.56,6.56,0,0,1,3551.28,1440.68Z"/><path class="cls-38" d="M3744.74,1501.65l-315.09-39.72a8.88,8.88,0,0,1-7.61-8.56h0a6.57,6.57,0,0,1,7.61-6.64l315.09,39.72a8.88,8.88,0,0,1,7.6,8.56h0A6.56,6.56,0,0,1,3744.74,1501.65Z"/><path class="cls-38" d="M3744.74,1538.24l-315.09-39.72A8.89,8.89,0,0,1,3422,1490h0a6.56,6.56,0,0,1,7.61-6.64L3744.74,1523a8.89,8.89,0,0,1,7.6,8.56h0A6.56,6.56,0,0,1,3744.74,1538.24Z"/><path class="cls-37" d="M3378.32,1612.6l-64.07-8.08a18.62,18.62,0,0,1-15.94-17.94v-64.07c0-8.8,7.14-15,15.94-13.93l64.07,8.08a18.62,18.62,0,0,1,15.94,17.94v64.07C3394.26,1607.47,3387.12,1613.71,3378.32,1612.6Z"/><path class="cls-38" d="M3551.28,1553.66l-121.63-15.33a8.89,8.89,0,0,1-7.61-8.56h0a6.56,6.56,0,0,1,7.61-6.64l121.63,15.33a8.88,8.88,0,0,1,7.6,8.56h0A6.55,6.55,0,0,1,3551.28,1553.66Z"/><path class="cls-38" d="M3744.74,1614.63l-315.09-39.71a8.89,8.89,0,0,1-7.61-8.56h0a6.57,6.57,0,0,1,7.61-6.65l315.09,39.72a8.88,8.88,0,0,1,7.6,8.56h0A6.55,6.55,0,0,1,3744.74,1614.63Z"/><path class="cls-38" d="M3744.74,1651.22l-315.09-39.71A8.89,8.89,0,0,1,3422,1603h0a6.57,6.57,0,0,1,7.61-6.65L3744.74,1636a8.88,8.88,0,0,1,7.6,8.56h0A6.55,6.55,0,0,1,3744.74,1651.22Z"/><path class="cls-37" d="M3378.32,1729.37l-64.07-8.08a18.62,18.62,0,0,1-15.94-17.94v-64.08c0-8.8,7.14-15,15.94-13.92l64.07,8.07a18.62,18.62,0,0,1,15.94,17.94v64.08C3394.26,1724.24,3387.12,1730.47,3378.32,1729.37Z"/><path class="cls-38" d="M3551.28,1674.25l-121.63-15.33a8.9,8.9,0,0,1-7.61-8.57h0a6.57,6.57,0,0,1,7.61-6.64L3551.28,1659a8.88,8.88,0,0,1,7.6,8.56h0A6.56,6.56,0,0,1,3551.28,1674.25Z"/><path class="cls-38" d="M3744.74,1735.22l-315.09-39.72a8.89,8.89,0,0,1-7.61-8.56h0a6.56,6.56,0,0,1,7.61-6.64L3744.74,1720a8.87,8.87,0,0,1,7.6,8.56h0A6.56,6.56,0,0,1,3744.74,1735.22Z"/><path class="cls-38" d="M3744.74,1771.81l-315.09-39.72a8.89,8.89,0,0,1-7.61-8.56h0a6.56,6.56,0,0,1,7.61-6.64l315.09,39.71a8.89,8.89,0,0,1,7.6,8.56h0A6.56,6.56,0,0,1,3744.74,1771.81Z"/><path class="cls-22" d="M3274.32,1405.77a14.34,14.34,0,0,1,2.7.43c.9.19,1.77.43,2.65.67,1.74.49,3.47,1,5.17,1.6s3.41,1.19,5.08,1.84,3.36,1.31,5,2a162.23,162.23,0,0,1,19.3,9.74,128.74,128.74,0,0,1,18.05,12.7,77,77,0,0,1,8.32,8.17,43,43,0,0,1,7.15,11.08l-14.91-3.2c1.64-1.61,3.19-3.09,4.81-4.58s3.21-3,4.86-4.4,3.28-2.88,4.95-4.28,3.35-2.8,5-4.17a246.18,246.18,0,0,1,21.22-15.4q5.52-3.59,11.28-6.81c1.92-1.09,3.89-2.09,5.82-3.13s4-1.93,6-2.87,4.06-1.77,6.11-2.62,4.1-1.63,6.24-2.28,4.21-1.38,6.38-1.88,4.35-.94,6.52-1.29c-7,5.38-13.54,10.8-20,16.32s-12.69,11.21-19,16.8l-18.79,17-9.39,8.47-9.28,8.43-10.18,9.26-4.73-12.46a29.68,29.68,0,0,0-4-6.69,79.33,79.33,0,0,0-6.08-7.14c-4.45-4.73-9.39-9.37-14.47-14s-10.33-9.12-15.64-13.67l-8-6.88-4-3.45A51.66,51.66,0,0,0,3274.32,1405.77Z"/><polygon class="cls-22" points="3081.91 1308.27 3014.86 1300.38 3014.86 1233.33 3081.91 1241.22 3081.91 1308.27"/><polygon class="cls-16" points="3158.29 1317.26 3091.24 1309.37 3091.24 1181.22 3158.29 1189.11 3158.29 1317.26"/><polygon class="cls-39" points="3234.67 1326.25 3167.62 1318.36 3167.62 1064.6 3234.67 1072.5 3234.67 1326.25"/><polygon class="cls-40" points="3311.05 1335.24 3244 1327.35 3244 974.58 3311.05 982.47 3311.05 1335.24"/><polygon class="cls-22" points="3442.87 1008.25 3409.68 1004.35 3409.68 971.15 3442.87 975.06 3442.87 1008.25"/><polygon class="cls-16" points="3442.87 1064.8 3409.68 1060.89 3409.68 1027.69 3442.87 1031.6 3442.87 1064.8"/><polygon class="cls-39" points="3442.87 1121.34 3409.68 1117.43 3409.68 1084.23 3442.87 1088.14 3442.87 1121.34"/><polygon class="cls-40" points="3442.87 1177.88 3409.68 1173.97 3409.68 1140.78 3442.87 1144.68 3442.87 1177.88"/><path class="cls-38" d="M3630.37,1022.12l-157.59-18.55a9.71,9.71,0,0,1-8.39-9.38h0a7.31,7.31,0,0,1,8.39-7.4l157.59,18.55a9.69,9.69,0,0,1,8.39,9.37h0A7.31,7.31,0,0,1,3630.37,1022.12Z"/><path class="cls-38" d="M3630.37,1191.74l-157.59-18.55a9.7,9.7,0,0,1-8.39-9.38h0a7.31,7.31,0,0,1,8.39-7.4L3630.37,1175a9.7,9.7,0,0,1,8.39,9.38h0A7.31,7.31,0,0,1,3630.37,1191.74Z"/><path class="cls-38" d="M3734.33,1034.35l-70.4-8.28a9.71,9.71,0,0,1-8.39-9.38h0a7.31,7.31,0,0,1,8.39-7.4l70.4,8.28a9.7,9.7,0,0,1,8.39,9.38h0A7.3,7.3,0,0,1,3734.33,1034.35Z"/><path class="cls-38" d="M3576.75,1055.57l157.58,18.54a9.7,9.7,0,0,1,8.39,9.38h0a7.3,7.3,0,0,1-8.39,7.4l-157.58-18.54a9.7,9.7,0,0,1-8.39-9.38h0A7.3,7.3,0,0,1,3576.75,1055.57Z"/><path class="cls-38" d="M3472.78,1043.33l70.41,8.29a9.69,9.69,0,0,1,8.39,9.37h0a7.31,7.31,0,0,1-8.39,7.41l-70.41-8.29a9.7,9.7,0,0,1-8.39-9.38h0A7.31,7.31,0,0,1,3472.78,1043.33Z"/><path class="cls-38" d="M3576.75,1112.11l157.58,18.55a9.68,9.68,0,0,1,8.39,9.37h0a7.31,7.31,0,0,1-8.39,7.41l-157.58-18.55a9.7,9.7,0,0,1-8.39-9.38h0A7.3,7.3,0,0,1,3576.75,1112.11Z"/><path class="cls-38" d="M3472.78,1099.87l70.41,8.29a9.69,9.69,0,0,1,8.39,9.37h0a7.31,7.31,0,0,1-8.39,7.41l-70.41-8.29a9.7,9.7,0,0,1-8.39-9.38h0A7.31,7.31,0,0,1,3472.78,1099.87Z"/><polygon class="cls-38" points="2909.97 1295.56 2899.87 1294.37 2899.87 821.47 2909.97 822.66 2909.97 1295.56"/><polygon class="cls-38" points="3349.66 1349.12 2899.87 1296.18 2899.87 1287.51 3349.66 1340.46 3349.66 1349.12"/><path class="cls-41" d="M3439.9,1208.41l281.47,36.28a40.47,40.47,0,0,1,35.3,40.14v78.08a40.47,40.47,0,0,1-46.62,40l-281.48-43.32a40.47,40.47,0,0,1-34.31-40v-71A40.47,40.47,0,0,1,3439.9,1208.41Z"/><path class="cls-12" d="M2941.24,1349.21l271.13,36.53a36.5,36.5,0,0,1,31.63,36.17v243.81a36.5,36.5,0,0,1-41.62,36.14l-271.13-38.43a36.5,36.5,0,0,1-31.38-36.15V1385.39A36.5,36.5,0,0,1,2941.24,1349.21Z"/><g class="cls-42"><g class="cls-43"><path class="cls-16" d="M2913.7,1508.45v105.69a35,35,0,0,0,29.09,34.5l242.26,41.54a35,35,0,0,0,40.92-34.51v-59.43s-13.67-110.47-63.91-122-95.74,50.56-131.76,48.87S2934.55,1452.86,2913.7,1508.45Z"/></g></g><circle class="cls-44" cx="3014.86" cy="1425.41" r="28.21"/><ellipse class="cls-19" cx="2371.47" cy="2568.87" rx="1622.91" ry="216.13"/><g class="cls-45"><path class="cls-46" d="M2165,2255.37s-921.78,658.21-892.31,651.39,233.93,0,233.93,0L2307,2303.88Z"/><path class="cls-46" d="M3325.71,2255.37s-921.78,658.21-892.31,651.39,233.93,0,233.93,0l800.35-602.88Z"/><path class="cls-46" d="M2540.51,2255.37s-921.78,658.21-892.3,651.39,233.92,0,233.92,0l800.35-602.88Z"/><ellipse class="cls-47" cx="1426.51" cy="2479.19" rx="484.25" ry="105.18"/><ellipse class="cls-47" cx="2361.47" cy="2662.95" rx="487.69" ry="94.08"/><ellipse class="cls-47" cx="2576.69" cy="2410.53" rx="318.05" ry="70.24"/></g><ellipse class="cls-47" cx="3572.81" cy="2597.04" rx="104.58" ry="26.4"/><path class="cls-24" d="M3549.24,2420.3s-21.79-120.38-65.38-287.46-59.48-260.82,20.07-268.43,111.73,207.2,107.58,306.83-27,249.06-27,249.06Z"/><g class="cls-48"><path class="cls-49" d="M3507.71,1941.73s48.78,120.28,59.15,463.78"/><path class="cls-50" d="M3529.78,1847.2s26.9,77.31,32,193-44.2,140.1-44.2,140.1L3551,2344.44l65.68-357.15L3557,1869.56Z"/></g><path class="cls-24" d="M3572.05,2393.92c-.54-7.09,86.64-350.33,177.7-407.14s126.09,45.92,59.15,126.08S3603.43,2404,3603.43,2404Z"/><g class="cls-51"><path class="cls-49" d="M3783.24,2024.91s-177.46,281-201.59,389.16"/><path class="cls-50" d="M3853.29,1996.89C3851,1996.12,3721,2300,3616.68,2274l-54.91,122.8,35.45,43.76,82.71-27.25,181.14-296.54,6.55-65.59Z"/></g><path class="cls-28" d="M3544,2404s39.69-347.79,68.49-472.38,154.89-102.79,142.44-25.74-74.64,214.82-105,302.77S3579,2404,3579,2404Z"/><g class="cls-52"><path class="cls-53" d="M3753.14,1944.23s-74.2,204.12-134.39,242.93-61.74,27.92-61.74,27.92L3534.17,2402l96.52-8.39,12.83-166.79Z"/><path class="cls-54" d="M3692.43,1906.35s-104.81,371.52-138,519.92"/></g><path class="cls-28" d="M3527.14,2402s-108.3-192.17-166.69-256.16-15.85-168.75,74.09-135.8,127.23,386.77,127.23,386.77Z"/><g class="cls-55"><path class="cls-53" d="M3468.23,2017.13s64.39,169.41,6.27,250.36-62.78,67.45-62.78,67.45,88.73,68.38,91.84,74.67,108.67-1.1,108.3,0-119.71-346.84-119.71-346.84Z"/><path class="cls-54" d="M3411.72,2072.39c-1.56,4.15,96.88,182.53,132.24,337.22"/></g><path class="cls-29" d="M3468.23,2420.3,3497,2590.75s28,16.35,74.72,17.12,79.39-17.12,79.39-17.12l28.8-170.45Z"/><g class="cls-56"><path class="cls-57" d="M3632.24,2404c1.56,1,33.44,60-20.38,110.15s-149.29,24.76-149.29,24.76l5.66,88.73h177.5l102.74-107.41-7.78-122.45Z"/></g><rect class="cls-29" x="3447.71" y="2386.83" width="250.1" height="45.55" rx="22.77"/><g class="cls-58"><rect class="cls-57" x="3427.8" y="2412.26" width="316" height="29.06"/></g><path class="cls-59" d="M3081.53,1752c-154.78-37.06-506.9-63-916.53-63s-761.76,25.89-916.53,63h-84v42.27c0,58.11,448,105.22,1000.52,105.22s1000.52-47.11,1000.52-105.22V1752Z"/><ellipse class="cls-3" cx="2165" cy="1752.01" rx="1000.52" ry="105.22"/><g class="cls-60"><polyline class="cls-61" points="2135.49 1615.65 1312.55 1927.39 1417.69 1928.22 2170.35 1628.41 2135.49 1615.65"/><polyline class="cls-61" points="2421.82 1615.65 1642.66 1927.39 1855.2 1934.92 2607.87 1635.1 2465.6 1615.65"/></g><polygon class="cls-62" points="1497.33 1407.9 1490.93 1400.79 1513.68 1393.7 1745.46 1456.95 1745.46 1744.18 1722.71 1757.69 1688.58 1703.66 1497.33 1407.9"/><polygon class="cls-63" points="1490.93 1400.79 1490.93 1659.58 1722.71 1757.69 1722.71 1468.55 1490.93 1400.79"/><polygon class="cls-62" points="1303.94 1694.18 1291.15 1693.79 1291.15 1713.85 1506.93 1846.57 1722.71 1778.31 1722.71 1757.69 1703.51 1754.85 1303.94 1694.18"/><polygon class="cls-63" points="1505.15 1648.68 1490.93 1659.58 1291.15 1693.79 1508.7 1821.68 1722.71 1757.69 1710.86 1749.87 1505.15 1648.68"/><polygon class="cls-64" points="1489.03 1666.06 1696.34 1753.76 1583.2 1783.61 1390.02 1683.12 1489.03 1666.06"/><polygon class="cls-65" points="1505.83 1422.4 1705.64 1482.55 1705.64 1738.5 1505.15 1648.68 1505.83 1422.4"/><path class="cls-4" d="M1137.23,1817.41l28.46,9s289,46,329.4,56.71,184.8,359.7,184.8,359.7l-105.26,42s-133.85-294.17-165.43-300-378.62-92.61-378.62-92.61Z"/><g class="cls-66"><path class="cls-67" d="M1114.74,1877.58c3.52,2.59,311.61,13.29,386.5,165.78s108.78,228.74,117,245.12-142,16.85-142,16.85-123.16-87.68-157.14-156.88S1114.74,1877.58,1114.74,1877.58Z"/></g><path class="cls-68" d="M920,1272.62c.49.71,47.46,92.85,65.27,87.37l14.83-.64,14.63-17.9-20.63-48.62Z"/><path class="cls-5" d="M1094.8,1260s19.27,0,35.27-37.47-39.58-71.16-60.21-53.47c0,0-32.84-35.79-93-14.74s-67.93,82.1-61.61,110.73,72.15,41.26,87.93,39.16S1094.8,1260,1094.8,1260Z"/><g class="cls-69"><path class="cls-70" d="M892.33,1249.46c.64,1.27,43.93,29.71,104.28,10.75s61.2-55.93,61.2-55.93,25.38,24.64,53.19,6.63,9.79-43.6,9.79-43.6l22.75,47.08-4.74,39.18-102.38,67.75s-42.66,43-75.52,19.06S892.33,1249.46,892.33,1249.46Z"/></g><path class="cls-71" d="M1185.49,2459.26c-18.34-4.37-41.77-7-67.31-7s-49,2.62-67.3,7h-39.1v24c0,17.1,47.64,31,106.4,31s106.4-13.87,106.4-31v-24Z"/><ellipse class="cls-72" cx="1118.18" cy="2459.26" rx="106.4" ry="30.96"/><rect class="cls-6" x="1097.79" y="2043.36" width="33.91" height="418.36"/><g class="cls-73"><rect class="cls-74" x="1061.39" y="2066.29" width="111.86" height="85.95"/></g><path class="cls-7" d="M843.05,1505.46c67.49,29.24,37.35,243.43,69.79,354.09S1017,1961.2,1163.48,1969.06s193.24,5.34,190.68,76.67-338.12,77.65-456.07,7.86S810.62,1799,807.67,1702.33s-2.3-160.17-34.73-163.78-44.43-8.86-45.21-33.09C727.73,1505.46,728.44,1455.8,843.05,1505.46Z"/><g class="cls-75"><path class="cls-76" d="M701.78,1479.62c3.82,2,120.79-11.75,149.29,74.74s-9.32,266.36,51.58,380.38,114.53,141.54,485.08,100.26c0,0-34.51-90.43-33.47-87.48s-359.69-2-359.69-8.85-99.45-504.22-99.45-504.22l-167.4-22.53Z"/></g><path class="cls-13" d="M1146.7,1535.59s48.23,57.43,66.91,62.67,164.14,58.16,177.57,61.85,48,1.33,72.58,11.24c24,9.69,38.91,47.15-7.22,36-38.13-9.21-74.53.08-84-9,0,0-159.16-32.84-185-40.05s-83-81.71-83-81.71Z"/><path class="cls-8" d="M1093,1464.59l5.06,3.64s57.19,55.66,57.84,63.52-.33,14.09-12.12,29.16-41.94,21.63-41.94,21.63Z"/><g class="cls-77"><path class="cls-78" d="M1106.3,1466.88c0,1,20.64,124.08,20.64,124.08s-31.44,2.72-33.9-2.2-17.87-141.86-17.87-141.86Z"/></g><path class="cls-9" d="M1650.66,2236.93l35.08,65.56s79.14,19.52,113.25,18,35.9,40.54,34.83,56.8-210.29,57.73-221.94,41.36-12.25-82.42-8.16-91.94-30.45-52.91-30.45-52.91Z"/><g class="cls-79"><path class="cls-13" d="M1695.75,2295.37c-1.44.3-10,7.12-10,7.12s-6.78,11.56-31.64,20.07-57.45-4-57.45-4l-49.44-44.13L1676,2210.57Z"/><path class="cls-80" d="M1844.88,2365c-.17.1-1.83,1.06-5,2.66-13.45,6.78-54,24.89-121.65,35.55-83.58,13.15-116.57,7.77-116.57,7.77l2.33,11.56,47,11.92s100-19.47,101-19.67,77.92-16.36,77.92-16.36l15.08-16.4-.26-16.93"/><path class="cls-81" d="M1786.62,2314.67s-21.72,14.15-14,52.69,20.83,43.69,20.83,43.69"/><path class="cls-82" d="M1596.14,2354.2l.75.16c6.08,1.36,47.29,12.44,50.84,63.48l-61.44,4.86"/><path class="cls-83" d="M1757.11,2307.58s-12.47,7.78-14.12,30.67"/><path class="cls-83" d="M1734.15,2305.73s-12.47,7.77-14.12,30.67"/><path class="cls-83" d="M1711.19,2303.87s-12.47,7.78-14.13,30.67"/></g><path class="cls-10" d="M981.15,1961.28l12.29,23.59s28,14.25,97.79,20.15,246.22,15.73,246.22,15.73L1267.66,2268l108.12,7.86s43.25-113,68.81-190.68,60-163.82-8.52-176.27-333.53-52.09-333.53-52.09L1021,1902Z"/><g class="cls-84"><path class="cls-85" d="M1066.57,1885.33s-12.35,37.86,23,52.61,321.06,2.62,295.38,67.28S1302.47,2315,1302.47,2315h-97.31s111.26-271.22,108-270.32-344.6,14.91-349.76,3.85-22.12-105.41-22.12-105.41l122.41-64.79"/><path class="cls-86" d="M1073.53,1878.31s33.1,27.6-2,76.75c0,0,318.13-9.51,313.71,43.08s-86,290.45-86,290.45"/></g><path class="cls-11" d="M983.69,1411.92l-2.05.9a717.89,717.89,0,0,0-79.58,33.51c-12.78,14,0,190.59,1.68,230.4s-14.66,249.66,89.7,308.14c0,0,3.93-44.23,37.84-64.87s100-94.6,134.41-93.62c0,0-41.53-26.79-45.46-115.74s-21.62-213.78-21.62-238.35-57.62-54.55-57.62-54.55Z"/><g class="cls-87"><path class="cls-88" d="M918.4,1439.73s-4.45,69.91,14.73,134.78,45.23,125.42,90,179.18,112.1,108,112.1,108l-63,49-73.38,97.8s-58.82-14.74-62.75-19.66-88-309.12-88-310.59,12.29-217.72,12.29-217.72Z"/><path class="cls-89" d="M1028.48,1417.74s6.08,29,13.85,109.59,3.85,185,25.47,243.88,64.38,98.66,64.38,98.66"/></g><path class="cls-90" d="M1031,1389.72s19.41,7,19.41,7.38,3.2,42.63,3.2,42.63l-18.92-19-3.69-4.3Z"/><path class="cls-13" d="M1097.62,1251.63s12.2,87.49-9.92,110.66c-22.9,24-48.4-9.1-51.34-1.89s-1.64,60.29-1.64,60.29-22.61,10.81-49.48-9.51V1360s20.24-7.65,16.3-23.83c-17.69-15.48-15-36.56-3.17-43s62.15-20.7,70.75-62.71C1069.12,1230.5,1079.19,1249.91,1097.62,1251.63Z"/><g class="cls-91"><path class="cls-92" d="M1106.63,1262.93s-23.35,1.23-36.37-15c0,0-4.92,29.49-49.39,46.69s-26.54,45.21-26.54,45.21l-17.69-16.22-6.88-30s56-38.34,66.1-48.9,28-30.35,28-30.35l25.59,24s19.66,8.6,19.42,9.34S1106.63,1262.93,1106.63,1262.93Z"/><path class="cls-93" d="M1108.74,1333.82s-12.36,22.56-38.75,1.82"/><polygon class="cls-92" points="1042.34 1368.43 1037.63 1359.38 1009.56 1343.31 1039.82 1382.34 1042.34 1368.43"/></g><polygon class="cls-8" points="1023.41 1393.41 1024.64 1450.17 981.64 1412.82 982.87 1381.37 1023.41 1393.41"/><path class="cls-13" d="M804.43,1506.69c-11.79,5.31-77.34,60.67-76.7,81.51s46.81,267.09,46.81,267.09S736.22,1950.8,791,1966.94s28.43-109.12,28.43-109.12-23.6-241.42-24-249c-1.24-25.88,48.51-51,48.51-51Z"/><path class="cls-8" d="M936.82,1453.72c-14-18.9-47.89-5.91-83.72,13.32s-67.19,37-67.19,37-5.26,17.46,14,43.56,38.26,20.81,38.26,20.81,44.88-28.66,71.13-48.23S951.15,1473,936.82,1453.72Z"/><g class="cls-94"><path class="cls-78" d="M945.1,1451.3s-52.92,11.47-92.18,36.45c-39.61,25.19-68.75,59.93-68.75,59.93s-16.15-30.42-17.45-31.77-2.15-23.6-2.15-23.6l136.19-74.5Z"/></g><path class="cls-9" d="M1349.08,2303.12l-3.27,34.4s73.71,34.76,107.46,40,27.19,46.83,22.93,62.56-217.55,15.07-225.74-3.28,4.26-83.22,10.16-91.74,7-48.27,7-48.27Z"/><g class="cls-95"><path class="cls-13" d="M1357,2332.52c-1.48,0-11.21,5-11.21,5s-8.94,10-35,13.43-55.53-15.23-55.53-15.23l-2-51.85,105.42,12.91Z"/><g class="cls-96"><path class="cls-97" d="M1354.32,2305.25s-42.43,3.76-66.51,21.62S1267,2351,1266.51,2351s-9.5-.82-9.5-.82l6.88-55.2Z"/></g><path class="cls-80" d="M1489.46,2430.24c-.18.06-2,.68-5.42,1.62-14.53,4-57.84,13.75-126.28,10.83-84.53-3.61-115.81-15.4-115.81-15.4v11.79l43.73,21,102.87.66,79.62-.66,18-13.1,3.09-16.65"/><path class="cls-81" d="M1442.29,2369.38s-24.09,9.58-24.09,48.9,11.8,46.93,11.8,46.93"/><path class="cls-82" d="M1247.76,2370.52l.7.3c5.69,2.54,43.9,21.54,37.3,72.28l-61.19-7.37"/><path class="cls-83" d="M1414.76,2356.6s-13.76,5.16-19.9,27.28"/><path class="cls-83" d="M1392.62,2350.25s-13.76,5.16-19.9,27.28"/><path class="cls-83" d="M1370.48,2343.9s-13.77,5.16-19.91,27.28"/></g><path class="cls-98" d="M1332.54,2251.24c-21.81-2.11-64.88-11.8-69-3.94s-15.24,49.89-7.62,54.06,43.25,5.16,63.15,8.36,50.87,11.55,56.27-3.2,16.47-48.4,3.69-48.89S1342.88,2252.24,1332.54,2251.24Z"/><path class="cls-99" d="M1612.94,2221c-19.29,10.39-60.46,26.32-59.55,35.18s15.11,49.92,23.77,49.15,38.8-19.79,57.11-28.22,48.68-18.73,45-34-16.76-46.28-27.65-39.57S1622.09,2216.06,1612.94,2221Z"/><path class="cls-100" d="M1094.8,1287.66c.06.68,9.5,17.24,12.06,26.24s-12,7.12-12,7.12Z"/><ellipse class="cls-93" cx="1063.4" cy="1296.03" rx="6.37" ry="9.35" transform="translate(-137.3 126.05) rotate(-6.37)"/><path class="cls-93" d="M1075.8,1276.17s-23.47-11.68-36,7.31"/><circle class="cls-101" cx="1057.13" cy="1315.92" r="5.4"/><path class="cls-14" d="M2708.33,2260.35s3.16,41.45,10.26,49.54,107.75,24.26,114.06,50.32,1.58,47.37-34,48.95-139.15,7.53-147-6.68-9-69.49,0-75.8-1.84-42.82-1.84-42.82Z"/><g class="cls-102"><path class="cls-18" d="M2722.31,2307.94c-.47.32-30.18,23.86-57,23.86s-27-2.69-27-2.69l5-35.39,19.12-28.12,51.51-3.28Z"/><path class="cls-103" d="M2621.1,2388.91c1.58,1,55.29,10.43,127.34,10.74s93.85-7,93.85-7l2.21,23.7-163.68,28.44-82.48-13Z"/></g><path class="cls-14" d="M2507.17,2259.22s-8,40.79-3.34,50.49,97.35,52.14,96.48,78.94-11.13,46.08-45.8,38.11-136.11-29.9-139.92-45.71,9.85-69.37,20.24-73.05,9.66-41.75,9.66-41.75Z"/><g class="cls-104"><path class="cls-18" d="M2507.93,2308.82c-.54.17-35.45,14.93-61.33,7.76s-25.32-9.81-25.32-9.81L2435.6,2274l25.93-22,50.51,10.6Z"/><path class="cls-103" d="M2388.77,2359.82c1.27,1.33,50.5,24.81,119.85,44.36s92.29,18.36,92.29,18.36l-4.19,23.43-165.34-16.31-76-34.5Z"/></g><path class="cls-15" d="M2708.47,1487.45s17.06,352.43,21.32,440.59,22.76,354.07,22.76,354.07-64.47,47.4-131.77,3.79l-36-525.64-16,526.11s-60.78,59.72-137.56-1.42c0,0,2.84-315.67,0-442.22s-19.2-269.22,5-352.17Z"/><g class="cls-105"><path class="cls-106" d="M2729.79,1592s-149.77-5.68-146,155.47,10.55,185.8,10.55,185.8v456l158.19-37.92,73.94-91Z"/></g><path class="cls-107" d="M2699.93,1456l8.54,10.67s3.79-7.35,6.16,12.56-.56,50.13-136.51,45.5-155-34.13-155-34.13-5.69-26.07,15.88-28.91S2699.93,1456,2699.93,1456Z"/><path class="cls-16" d="M2603.4,1040.91s78,13,108.38,20.54,41.48,29.07,62.81,83.82S2835.73,1318,2835.73,1318l-78.45,44L2725,1263s-11.53,154.62-16.5,203.68c0,0-22.76,27.72-118.74,19.19S2439,1461.65,2439,1461.65v-75.36l-86-7.59s14.88-137.94,22.28-193.62c7.82-58.84,16.75-97.26,45.72-115.41,35.55-22.28,93.94-32.23,93.94-32.23Z"/><g class="cls-108"><path class="cls-109" d="M2722.21,1049.76s18.49,30.81,48.35,122.76,48.82,157.36,48.82,157.36l57.82-21.33s-19.9-83.42-56.4-162.57S2722.21,1049.76,2722.21,1049.76Z"/><path class="cls-109" d="M2725.06,1281.05,2725,1263s.56-103.7-7.5-134c0,0-33,116.13-93.75,159.74s-102.34,87.21-37.95,74.88,104.52-12.32,66.45,30.34-149,92-153.73,96.69,120.39,60.67,120.39,60.67l80.82-17.73,33.89-93.18Z"/><path class="cls-109" d="M2430.12,1407.24l5.81-33.28s11.37-66.35,16.11-105.7,9-123.7,9-123.7,7.58,94.79,5.21,128-30.81,150.73-30.81,150.73l-5.33-16"/></g><path class="cls-17" d="M2650.8,873.12c.95-.63,38.86-7,47.71-43.6s-34.44-54-34.44-54-8.85-34.44-51.51-40.13-38.55,21.81-55.93,22.12-43-9.48-67,16.12-10.75,29.7-21.81,46.45-27.8,34.76-13.9,62.25,32.23,42.34,33.18,56.56,28.12,27.17,47.08,23.07,30.65-9.48,30.65-9.48l27.81-21.81Z"/><g class="cls-110"><path class="cls-111" d="M2444.14,907.57c1,0,54.67,10.11,80-23.39s52.06-56.24,70.27-57.51,86.46-22.12,83.93-46.76,69.2-17.38,69.2-17.38l-19.59,128-114.15,62.57-127.58,51.5-32.23-39.81-9.48-59.06"/></g><polygon class="cls-112" points="2591.08 1008.37 2628.05 1024.8 2616.25 1076.67 2591.86 1040.46 2584.76 1024.48 2591.08 1008.37"/><path class="cls-18" d="M2658.7,851s2.84,58.15,0,92.9-23.39,61-64.15,43v46.76s-4.74,23.07-29.7,18-28.75-17.38-28.75-17.38l-1.9-72.36s20.85-5.38,10.74-25-16.11-28.44-1-38.86,22.76-11.38,21.49-28.76,25.91,0,38.55-11.06S2651.11,828.57,2658.7,851Z"/><g class="cls-113"><path class="cls-92" d="M2529.78,971.79s34.12-.59,33.17-18.54-12.79-22.93-10.42-33.12,32-27.49,32.23-39.58,23.77-3.56,43.29-14.93,40.84-.71,40.84-.71l-4.27-30.57-106.17-5.93-29.86,38.87L2508,924.16Z"/><path class="cls-92" d="M2596.49,990.75l-1.94-3.87s-29.34-18-30.06-19.12,31.76,46,31.76,46Z"/></g><path class="cls-112" d="M2529.78,1000.47l33.17,22.12-11.69,66.67-36.34-51.82S2522.19,1010.26,2529.78,1000.47Z"/><path class="cls-18" d="M2821.82,1315.5l20.85,30.65s159.89-88.79,193.39-113.44,55.61-43,92.9-50.24,45.5,17.69,27.17,43-79.63,50.88-91.32,42.66c0,0-198,159.18-230.75,162.73s-73.7-80.28-73.7-80.28Z"/><g class="cls-114"><path class="cls-115" d="M2765.34,1334.15s55.46,71.57,70.39,77.73S3044.86,1284,3044.86,1284l-77.6,86.67-134.14,71.1-31.28-10.8-53.65-55.56Z"/></g><path class="cls-112" d="M2792.77,1322.77c13.34-7,38.53-23.93,48.56-13.27s18,20.86-26.13,40.29-56.26,24.15-65.5,12.77S2775.87,1331.65,2792.77,1322.77Z"/><path class="cls-18" d="M2365.25,1374l-13.18,260.27s44.88,19,46.77,19.11,34.76-275.11,34.76-275.11Z"/><path class="cls-112" d="M2384.66,1355c14.89,3,50.24-4.43,54,5.68s4.74,34.13-9.48,36.66-32.54,1.58-42.66,0-42.34-2.21-43-12.64S2333.78,1344.57,2384.66,1355Z"/><ellipse class="cls-93" cx="2586.74" cy="905.7" rx="7.06" ry="10.36" transform="translate(-84.55 292.74) rotate(-6.37)"/><ellipse class="cls-93" cx="2637.43" cy="897.52" rx="7.06" ry="10.36" transform="translate(-83.33 298.32) rotate(-6.37)"/><path class="cls-93" d="M2600.47,883.7s-26-12.94-39.86,8.09"/><path class="cls-93" d="M2623.72,880.11s11.08-19.21,28.5-4.63"/><path class="cls-93" d="M2635.22,951s-13.69,25-42.93,2"/><ellipse class="cls-100" cx="2628.43" cy="921.66" rx="6.84" ry="14.82" transform="translate(-145.1 665.49) rotate(-14.05)"/><circle class="cls-101" cx="2579.79" cy="927.73" r="5.98"/><circle class="cls-101" cx="2651.38" cy="916.25" r="5.98"/><g id="Layer_1" data-name="Layer 1"><g id="svg_120" data-name="svg 120"><path id="svg_121" data-name="svg 121" class="cls-116" d="M1937,1638.13c-1.14,0-2.33,0-3.51-.08l-2-.1-.27-22.6,2.43.34a17.27,17.27,0,0,0,1.91.09c6.19,0,20.81-2.39,23.23-24.52.47-20.89-.3-54.17-4.35-60.47l-.17-.25-.09-.3c0-.07-2.38-7.56-7.76-7.56-3.51,0-8,3.06-12.82,8.84l-.47.55-6.67,1.44-2.37-33,1.53-.54a58.07,58.07,0,0,1,17.61-2.82c11.84,0,32,4.56,34.39,35.09.17,2,4.34,49.27,2.94,65.46,0,1.6-.36,17.14-11.47,28.58C1961.5,1634.15,1950.7,1638.13,1937,1638.13Z"/><path id="svg_122" data-name="svg 122" d="M1943.26,1499.33c13.38,0,30.17,5.62,32.28,33.1,0,0,4.35,49.11,2.93,65.19,0,0,.33,38.35-41.44,38.35-1.11,0-2.25,0-3.41-.08l-.23-18.06a17,17,0,0,0,2.2.12c6.07,0,22.73-2.25,25.35-26.55,0,0,1.19-52.63-4.7-61.79,0,0-2.74-9.09-9.79-9.09-3.61,0-8.35,2.38-14.43,9.59l-3.59.77-2.09-28.85a56.7,56.7,0,0,1,16.92-2.7m0-4.32v0A60.16,60.16,0,0,0,1925,1498l-3.08,1.08.24,3.32,2.08,28.85.36,4.93,4.74-1,3.6-.77,1.4-.3.93-1.11c5.94-7,9.58-8.09,11.22-8.09,3.74,0,5.73,6,5.75,6.06l.17.59.33.49c.71,1.1,3.09,6.69,3.87,32.1.4,13.11.17,25.39.14,27-2.18,19.58-14.16,22.51-21.12,22.51a14.71,14.71,0,0,1-1.65-.08l-4.86-.67.08,5,.22,18.06,0,4.08,4,.19c1.22.06,2.43.09,3.61.09,14.26,0,25.56-4.2,33.6-12.48,11.47-11.81,12-27.78,12.08-30,1.38-16.4-2.75-63.39-3-65.76-2.48-32.24-23.92-37-36.49-37Z"/><path id="svg_123" data-name="svg 123" class="cls-116" d="M1855.21,1672.87c-16.08,0-55.11-2-70.16-20.25a2.19,2.19,0,0,1-.49-1.4l.3-141a2.15,2.15,0,0,1,1.82-2.14l139.79-19.58.28,0a2.11,2.11,0,0,1,1.36.5,2.19,2.19,0,0,1,.76,1.56l7.06,156.62a2.21,2.21,0,0,1-.43,1.41c-5.13,6.9-22.64,23.08-74.28,24.22h0S1859,1672.87,1855.21,1672.87Z"/><path id="svg_124" data-name="svg 124" d="M1926.75,1490.62l7.07,156.62c-4.68,6.29-21.53,22.23-72.64,23.36-.11,0-2.33.11-6,.11-15,0-54-1.77-68.53-19.48l.29-141,139.78-19.57m0-4.33a5.46,5.46,0,0,0-.57,0l-139.78,19.58a4.28,4.28,0,0,0-3.66,4.27l-.3,141a4.4,4.4,0,0,0,1,2.79c6.93,8.42,19.23,14.42,36.56,17.85a191.21,191.21,0,0,0,35.22,3.17c3.46,0,5.69-.09,6.11-.11,52.52-1.17,70.55-17.92,75.87-25.07a4.4,4.4,0,0,0,.86-2.81L1931,1490.42a4.32,4.32,0,0,0-1.52-3.13,4.16,4.16,0,0,0-2.71-1Z"/><path id="svg_125" data-name="svg 125" class="cls-116" d="M1859.25,1704c-15.83,0-55.07-1.59-77.42-16.34a2,2,0,0,1-.44-.38c-.62-.72-5.9-7.76,1.52-32.54a2.15,2.15,0,0,1,2-1.53h.65a2.1,2.1,0,0,1,1.52.65,40,40,0,0,0,10,7.41c18.31,9.9,46.21,11,57.35,11,4,0,6.52-.13,6.8-.14,47.28-1,65.65-14.33,72.39-22.15a2.12,2.12,0,0,1,1.59-.74l.28,0a2.12,2.12,0,0,1,1.62,1.19c1.1,2.28,10.53,22.56,1.66,33.19a.75.75,0,0,1-.15.16c-.77.75-19.5,18.43-73.82,20.16-.07,0-2.07.08-5.51.08Z"/><path id="svg_126" data-name="svg 126" d="M1935,1651.32c.92,1.91,10,21.22,2,30.83,0,0-18.3,17.83-72.43,19.56,0,0-2,.08-5.45.08-14.46,0-54.17-1.41-76.28-16,0,0-5.33-6.14,2-30.47l.6,0a42.36,42.36,0,0,0,10.52,7.81c18.41,10,45.66,11.22,58.35,11.22,3.91,0,6.44-.12,6.9-.14,48.33-1.07,67.1-15,73.88-22.88m0-4.33a4.2,4.2,0,0,0-3.18,1.47c-3,3.45-8.82,8.48-19.72,12.81-13.2,5.26-30.39,8.15-51.07,8.61h-.13c-.27,0-2.77.14-6.68.14-11,0-38.47-1-56.37-10.72a38.34,38.34,0,0,1-9.47-7,4.18,4.18,0,0,0-3-1.31h-.72a4.25,4.25,0,0,0-3.93,3.06c-7.41,24.73-2.7,32.74-1.07,34.61a4,4,0,0,0,.87.76c22.82,15.06,62.55,16.68,78.57,16.68,3.48,0,5.53-.08,5.61-.08,55.09-1.76,74.4-20,75.19-20.76a3,3,0,0,0,.3-.32c9.54-11.44.53-31.62-1.38-35.55a4.24,4.24,0,0,0-3.24-2.37,3.39,3.39,0,0,0-.55,0Z"/><path id="svg_127" data-name="svg 127" class="cls-117" d="M1922,1631.33c.11,7.92-5.72,16.56-13,19.2-29,10.57-59.44,11.7-89.29,4.44-3.55-.87-7.13-1.75-10.6-2.9-7.31-2.43-13.39-10.9-13.5-18.83l-1-70.62c-.11-7.92-.3-20.89-.41-28.82l-1-70.62a14.25,14.25,0,0,1,13.75-14.63l35.25-.53,27.92-.43,35.26-.53c7.68-.12,10.56,6.27,10.67,14.2l3.8,70.62c.11,7.93,1,20.9,1.11,28.82Z"/><path id="svg_128" data-name="svg 128" class="cls-118" d="M1911,1605.1c.49,7.9.46,14.9-5.27,16.36-6.07,1.55-6.71-6.1-6.87-14-.45-21-.27-42.06-.3-63.07,0-7,0-18.49,0-25.5l-.1-62.46c0-7,.59-12.83,1.33-12.94l3.42-.47,2.7-.38,3.42-.47c.74-.1,1,5.55,1,12.56l.37,62.47c0,7,.1,18.48.11,25.49,0,12.78,0,25.56,0,38.33,0,8-.34,16.06.15,24A.57.57,0,0,1,1911,1605.1Z"/><path id="svg_129" data-name="svg 129" class="cls-12" d="M1909.5,1505.18s22,20.13,30.42-17.26c0,0,13.52-5.75,4.51-18.41,0,0,4.5-15-8.45-13.23,0,0,1.69-19.56-16.9-16.1,0,0-6.2-11.51-18-2.31,0,0,2.46-11.32-2.82-17.46,0,0-20.84-21.65-43.37,1.36,0,0-11.83-9.21-21.41,3.45,0,0-9.58-6.9-18.59,4.6,0,0-9.58-16.11-20.28,0,0,0-25.35-3.45-22,22.44,0,0-19.72,10.92-9.58,25.31,0,0-12.3,9.14-3.38,19,0,0-7.51,11.06,6.77,20.13,0,0,2.25,12.08,11.26,8.63,0,0-2.81,18.41,9,21.29,0,0,2.25,39.11,25.91,35.66,0,0,18,.58,21.41-24.73,0,0,20.84-12.66,10.7-29.92,0,0,19.7,6.55,26.46-12.43,0,0,13.66,8.91,19.29-1.44C1890.47,1513.74,1907.81,1524.16,1909.5,1505.18Z"/><path id="svg_130" data-name="svg 130" d="M1809.72,1584.64c-20.34,0-24.34-29.23-25-36.39-9-3.31-9.66-14.63-9.4-20.18l-.69,0c-6.8,0-9.35-7.37-10.06-10.06-4.88-3.28-7.8-7.2-8.7-11.64a15.53,15.53,0,0,1,1.24-9.58,12.5,12.5,0,0,1-2.75-8.94c.47-4.9,3.86-8.79,5.9-10.72a15.11,15.11,0,0,1-1.86-11.13c1.7-7.61,9-13,12-14.9-.69-7.16.73-12.85,4.23-16.92,5-5.82,12.88-6.69,17.13-6.69.72,0,1.34,0,1.84,0,3.38-4.69,7.09-7.06,11-7.06,4.73,0,8.42,3.47,10.42,5.9,4.26-4.4,8.54-5.4,11.54-5.4a15.12,15.12,0,0,1,6.39,1.47c3.51-4,7.77-6.1,12.38-6.1a18.78,18.78,0,0,1,9.26,2.66c7-6.65,14.46-10,22.32-10,13.18,0,22.45,9.48,22.84,9.88l.08.09c3.66,4.25,4.1,10.45,3.87,14.69a13.83,13.83,0,0,1,6.11-1.53c5.37,0,8.8,3.66,10.28,5.69,6-.81,10.62.6,13.78,4.13,3.37,3.75,4.12,9,4.25,12,4.05,0,6.22,1.87,7.32,3.39,2.73,3.77,1.84,9.36,1.29,11.73,2.67,4.08,3.52,8,2.52,11.64-1.33,4.82-5.53,7.61-7.49,8.67-4.61,19.26-13.11,23.34-19.48,23.34A21.32,21.32,0,0,1,1911,1509c-2,8.38-7.6,9.75-11,9.75h0a21.84,21.84,0,0,1-8.8-2.22,11,11,0,0,1-9.1,4.37,23.21,23.21,0,0,1-9.86-2.67c-3.74,8.17-10.72,12.63-19.88,12.63a30.17,30.17,0,0,1-3.89-.26,19,19,0,0,1,.59,11.14c-2.23,9-10.37,15.21-13.08,17.06-3.75,24.73-21,25.6-23.23,25.62A24.09,24.09,0,0,1,1809.72,1584.64Zm-32-61.49a2.11,2.11,0,0,1,1.34.49,2.17,2.17,0,0,1,.75,2c0,.17-2.36,16.47,7.41,18.85a2.17,2.17,0,0,1,1.63,2c0,.34,2.2,33.84,20.91,33.84a17.86,17.86,0,0,0,2.59-.19,2.17,2.17,0,0,1,.36,0c1.69,0,16.28-.64,19.24-22.87a2.17,2.17,0,0,1,1-1.56c.1-.06,9.83-6.09,12-15a15.66,15.66,0,0,0-2-12,2.21,2.21,0,0,1,.16-2.46,2.08,2.08,0,0,1,2.31-.71,25.16,25.16,0,0,0,7,1c8.31,0,14-4.07,16.84-12.1a2.15,2.15,0,0,1,1.31-1.31,2.09,2.09,0,0,1,1.82.23s5,3.23,9.77,3.23a6.92,6.92,0,0,0,6.53-3.9,2.15,2.15,0,0,1,1.29-1,2.07,2.07,0,0,1,1.63.23s4.34,2.55,8.45,2.55h0c1.64,0,6.54,0,7.38-9.45a2.16,2.16,0,0,1,1.33-1.81,2.07,2.07,0,0,1,2.19.4s5.42,4.86,11.36,4.86c9,0,13.42-11.42,15.59-21a2.12,2.12,0,0,1,1.25-1.51s4.92-2.18,6.06-6.38c.69-2.55-.14-5.5-2.46-8.76a2.23,2.23,0,0,1-.31-1.91c.5-1.66,1.39-6.5-.38-8.94-1-1.39-2.94-1.89-5.77-1.51a2.08,2.08,0,0,1-1.74-.58,2.19,2.19,0,0,1-.64-1.75c0-.07.54-7.15-3.14-11.23-1.78-2-4.24-2.94-7.52-2.94a20.46,20.46,0,0,0-3.75.38,2.11,2.11,0,0,1-2.24-1.09c-.1-.18-2.67-4.75-7.42-4.75-2.29,0-4.8,1-7.47,3.13a2.07,2.07,0,0,1-2.42.1,2.19,2.19,0,0,1-.93-2.29c0-.1,2.15-10.27-2.29-15.52-.61-.61-8.8-8.55-19.79-8.55-7.16,0-14.07,3.35-20.55,10a2.1,2.1,0,0,1-2.78.19,15.13,15.13,0,0,0-8.25-2.79c-3.83,0-7.26,2-10.19,5.84a2.1,2.1,0,0,1-2.9.45,10.84,10.84,0,0,0-5.68-1.66c-3.62,0-7,2-10,5.84a2.08,2.08,0,0,1-3.46-.23s-3.73-6.11-8.45-6.11c-2.75,0-5.53,2.09-8.27,6.21a2.12,2.12,0,0,1-2,.93,21.25,21.25,0,0,0-2.59-.14c-3.53,0-10,.68-14,5.22-2.88,3.36-3.9,8.38-3,14.92a2.18,2.18,0,0,1-1.09,2.19c-.09,0-9.45,5.34-11.12,12.84-.69,3.13,0,6.17,2.25,9.31a2.19,2.19,0,0,1-.47,3s-5.26,4-5.72,9c-.22,2.36.65,4.57,2.65,6.78a2.2,2.2,0,0,1,.19,2.7,11.21,11.21,0,0,0-1.39,7.79c.71,3.44,3.25,6.56,7.53,9.28a2.17,2.17,0,0,1,1,1.43c0,.07,1.48,7.49,6.11,7.49a6.6,6.6,0,0,0,2.33-.48A1.91,1.91,0,0,1,1777.68,1523.15Z"/><path id="svg_131" data-name="svg 131" class="cls-118" d="M1839,1632.63c3.16,0,3.16-5,0-5s-3.16,5,0,5Z"/><path id="svg_132" data-name="svg 132" class="cls-118" d="M1853.06,1596.6c3.17,0,3.17-5,0-5s-3.16,5,0,5Z"/><path id="svg_133" data-name="svg 133" class="cls-118" d="M1871.41,1550.48c3.16,0,3.16-5,0-5s-3.16,5,0,5Z"/><path id="svg_134" data-name="svg 134" class="cls-118" d="M1819.19,1600.92c3.16,0,3.16-5,0-5s-3.16,5,0,5Z"/><path id="svg_135" data-name="svg 135" class="cls-118" d="M1885.53,1631.91c3.16,0,3.16-5,0-5s-3.16,5,0,5Z"/><path id="svg_136" data-name="svg 136" class="cls-118" d="M1875.5,1574.78a3.4,3.4,0,0,0-.21-2.92,2.83,2.83,0,0,0-4.93,0,3.4,3.4,0,0,0-.21,2.92,2.76,2.76,0,0,0,5.35,0Z"/><path id="svg_137" data-name="svg 137" class="cls-118" d="M1842.83,1575l.75.68a3.51,3.51,0,0,0,2.43,1,3.42,3.42,0,0,0,2.42-1,3.55,3.55,0,0,0,1-2.48,3.66,3.66,0,0,0-1-2.48l-.66-.77a3.46,3.46,0,0,0-4.94,0,3.64,3.64,0,0,0,0,5Z"/><path id="svg_138" data-name="svg 138" class="cls-118" d="M1856.59,1623.27c3.16,0,3.16-5,0-5s-3.16,5,0,5Z"/><path id="svg_139" data-name="svg 139" class="cls-118" d="M1875.08,1607.52a3.2,3.2,0,0,0-1.31-1.92,2.63,2.63,0,0,0-1.86-.24,3.06,3.06,0,0,0-1.33.86,2.25,2.25,0,0,0,0,3.14,3.24,3.24,0,0,0,3,.87,3.1,3.1,0,0,0,1.49-.87l-1.54.66h.71a2.21,2.21,0,0,0,2.1-1.64,2.25,2.25,0,0,0-1.52-2.74c.47.11.3.16.11.08a7.76,7.76,0,0,0-.72-.3l1.68,1.72a3.19,3.19,0,0,0-1.36-1.83l.57.45-.11-.09a3,3,0,0,0-1.35-.81,3.32,3.32,0,0,0-2.37.32,3.65,3.65,0,0,0-.83.66,4,4,0,0,0-1,1.72,3.57,3.57,0,0,0,.9,3.47,3.51,3.51,0,0,0,4.24.56,1,1,0,0,0,.17-.1l-1.8.5a4.15,4.15,0,0,0,3.76-2.59l-2.3,1.81a4.53,4.53,0,0,0,2.59-2,6.34,6.34,0,0,0,.48-1.21c-.13.33-.27.67-.41,1h0l-1.49,1.51h0l-6.21-3.64a1.23,1.23,0,0,1,0,.2,4.15,4.15,0,1,0,8.3,0,7.23,7.23,0,0,0-.18-1.32,4.24,4.24,0,0,0-2.88-2.94,4.07,4.07,0,0,0-4,1.08,4.27,4.27,0,0,0-1.22,3.06,4.42,4.42,0,0,0,1.28,3.25l-1-3.83a5.41,5.41,0,0,1-.12.58,3.81,3.81,0,0,0,0,2.36v-1.93l0,.09.36-.86,0,.1,6.39.85a4.05,4.05,0,0,0-1.82-2.38l1.41,3.54a1,1,0,0,0,0-.17c-.43.58-.86,1.15-1.3,1.72a3.2,3.2,0,0,0,1.37-1.83l-1.68,1.72c.24-.08.49-.2.72-.3s.36,0-.12.08a2.23,2.23,0,0,0-.58-4.38,5,5,0,0,0-1.28.08,2.25,2.25,0,0,0-1,.58c-.22.22.53-.38.24-.19s.57-.2.2-.09a1.28,1.28,0,0,1,1.24.28v3.14l.11-.1a1.56,1.56,0,0,1-1.16.46l-1.1-.3-.66-.69-.3-1.12c0,.22,0,.09.07-.38a2.47,2.47,0,0,1-.06.29,2.36,2.36,0,1,0,4.52,0Z"/><path id="svg_140" data-name="svg 140" class="cls-118" d="M1813.32,1617.54a3.74,3.74,0,0,0-1.84,2.42,5.82,5.82,0,0,0,0,2.49,3.71,3.71,0,0,0,.91,1.6,3.56,3.56,0,0,0,2.51,1.06,3.57,3.57,0,0,0,3.43-2.66,2.46,2.46,0,0,1,.1-.47c-.12.29-.24.59-.37.88l0-.07-.57.75.05,0-.74.59,0,0-.88.38.07,0-1,.13h0a3.91,3.91,0,0,0,2.6-1.1,3.85,3.85,0,0,0,1-3.66,3.77,3.77,0,0,0-1.69-2.25,3.73,3.73,0,0,0-1.86-.52,3.67,3.67,0,0,0-1.86.52Z"/><path id="svg_141" data-name="svg 141" class="cls-118" d="M1889.06,1526a.38.38,0,0,0,0-.75.38.38,0,0,0,0,.75Z"/><path id="svg_142" data-name="svg 142" class="cls-118" d="M1887.65,1531.74c3.16,0,3.16-5,0-5s-3.16,5,0,5Z"/></g></g><path class="cls-20" d="M2448.31,2434.16s-21.08,50-27.75,64-25.28,28.31-33.9,46.61-30.33,86-30.33,86l18.47,8,18.51-29.17s28.78,46.77,37.41,57.06,90.89,45.77,96.57,38.24,22-33.18,19.11-44.07-30.35-42.78-39.79-57.55-32.82-59.35-30.29-67.55,33.47-71.34,33.47-71.34Z"/><g class="cls-119"><path class="cls-18" d="M2412.28,2492s29.37,32.72,87.64,38.35.62-1.44.62-1.44l30.29-79.17-92.48-24.27Z"/><g class="cls-120"><path class="cls-121" d="M2471,2442.31c.48,1.42,2.85,63.52-2.37,88.16s21.33,28.92,21.33,28.92l31.28-34.13,4.27-46.45Z"/></g><path class="cls-18" d="M2485.42,2551.28s-36.42-1-34,10.06,31.34,53.2,41.32,59.59,40-10.53,40-10.53Z"/><path class="cls-122" d="M2377.27,2556c-.08,1,37.44,66.17,54.18,90.31s60,38.06,80.83,47.11,28.37,11.62,28.37,11.62l-14,24.25-152-60.07s-27.11-26.57-28.6-31-1.91-32.86-1.91-32.86Z"/></g><path class="cls-123" d="M2308.12,2029.93s161.62,3.79,225.61,2.85,111.15,12.79,123.95,78.2-152.86,377.53-152.86,377.53-35.55-6.4-61.14-53.33c0,0,22.75-65.4,35.54-120.15s72.52-157.83,72.52-157.83L2345,2147.66S2299.34,2144.05,2308.12,2029.93Z"/><path class="cls-20" d="M2585.64,2480.77s.55,54.26,0,69.74-11.93,36-12.56,56.25,6.4,91,6.4,91h20.14l5.37-34.12s45,31.46,57,37.47,101.6,5.82,103.81-3.35,7-39.18,0-48-44.87-27.17-59.41-37-53.71-41.39-54.66-49.92,2.32-78.76,2.32-78.76Z"/><g class="cls-124"><path class="cls-18" d="M2575.59,2548.17s40,18.33,95.67.31,0-1.58,0-1.58l-3.71-84.68L2573,2476.76Z"/><g class="cls-125"><path class="cls-121" d="M2580.35,2463.74s44.22,36.87,48,75.26,5.69,51.2,5.69,51.2l71.1-20.13-13.75-66.14L2680,2466.49l-99.68-2.75"/></g><path class="cls-18" d="M2666.28,2573.45s-33.81,13.58-27.17,22.75,49.92,36.34,61.61,38.23,32.55-25.59,32.55-25.59Z"/><path class="cls-122" d="M2569,2620.85c.31.94,60.67,45.81,85.63,61.3s70.15,11.06,92.9,11.06,30.65-.64,30.65-.64l-3.16,27.81-163.36,5.37s-35.45-13.58-38.58-17.06-14.83-29.39-14.83-29.39Z"/></g><path class="cls-21" d="M2345.09,2083.49s152.62-8.53,237-14.22,110,52.14,105.22,139.35-28.44,283.44-28.44,283.44-31.28,36-76.78,0c0,0-8.06-132.24-10.9-180.58s9-104.28,9-104.28l-210.86,9.51S2330.39,2148,2345.09,2083.49Z"/><g class="cls-126"><path class="cls-127" d="M2610.35,2051.75s41.43,14.12,43.11,99.84-15.38,372.25-15.38,372.25l74.65-35.33,22-200-46.93-243.13Z"/></g><path class="cls-22" d="M2158.41,1627.3c.48,1.43,2.61,8.3,2.61,8.3s48.35-.24,97.4,15.4c28,8.93,23.46,37.45,41.95,79.39s20.62,81.06,0,98.12-3.89,125.68,2.13,140.06c12.8,30.57,45.55,82.47,45.5,100.25-.14,59.73,2.14,76.78-6.39,76.78s-110,2.85-110,2.85l-82.65-19.2-35.55-107.36-4.26-370.41,21.09-24.18Z"/><g class="cls-128"><path class="cls-129" d="M2126.89,1623s42.05-7.92,47.33,58.25,11.68,369,34.43,385,131.14,18.17,143.42,23.86,40.77,53.32,40.77,53.32,13.46,39.1-106.69,8.53-158.07-85.71-158.07-85.71l.23-322.39Z"/></g><path class="cls-18" d="M2222,1423.26s4.74,70.78,5.69,105.85-16.11,58.14-68.88,44.24l2.21,62.25s-19.28,13.9-31.28,5.37-37-57.17-37-57.17l-14.54-70.17,16.12-71.73Z"/><g class="cls-130"><path class="cls-92" d="M2165,1579.91l-6.19-6.56-49.69-20s4.26,86.5,4.26,92.43,21.33,22.51,21.33,22.51l42.42-18.72Z"/><path class="cls-92" d="M2130.05,1492.77l8.22,3s22.12,2.06,59.09-25.75,38.55-30,38.55-30l-20.86-19.27-54,23.7Z"/><path class="cls-12" d="M2184.85,1542.64c5.14,7.58,17.56,19.51,39.31,4.14a2.89,2.89,0,0,0-1.4-5.22l-35.26-3.42A2.88,2.88,0,0,0,2184.85,1542.64Z"/></g><path class="cls-23" d="M2153,1355c4.57,3.49,34.11-8,63.49,19.44s11.85,63.51-18,85.79a344.38,344.38,0,0,1-60.19,35.54v228.94s-162.1,68.25-190.54-86.27c0,0,19.91-105.22,25.59-155.46s10-87.21,53.56-124.66S2133.09,1339.84,2153,1355Z"/><g class="cls-131"><path class="cls-132" d="M2184.48,1343.63s17.78,24.79,2.61,58.84-71.57,39.75-71.57,39.75,2.37,46.3-18,95.9-110.92,113.34-170.64,75.79L1924,1745.56l27.49,59.41,193.38-11.92,83.75-53.33s-23.08-208.68-26.87-226.07,45.5-66.85,60.67-89.05,3.79-50.82,3.79-50.82Z"/></g><path class="cls-71" d="M2034.78,2617.51c19.63-4.67,44.7-7.48,72-7.48s52.41,2.81,72,7.48h41.84v25.66c0,18.3-51,33.13-113.87,33.13s-113.87-14.83-113.87-33.13v-25.66Z"/><ellipse class="cls-72" cx="2106.81" cy="2617.51" rx="113.87" ry="33.13"/><path class="cls-6" d="M2129,2619.39s-7.12,8-17.84,8.06c-13.16.11-17.83-8.06-17.83-8.06V2252.53H2129Z"/><g class="cls-133"><rect class="cls-74" x="2057.93" y="2265.04" width="102.38" height="84.61"/></g><path class="cls-7" d="M1824,1956.48c1.63,110.9-3.56,281.55,51.19,316.38s50.48,19.91,251,19.91,265.9,6.4,283-17.06,20.14-107.83,16.35-132.95-19-43.13-104.28-43.13-123.23,4.26-139.82-12.8-12.56-47.87-12.56-124.66-5.69-174.19-12.8-229.64-26.84-115.89-66.38-133.66-172.5-26.31-274.88,0-84.61,109-45.51,140.85S1822.15,1830,1824,1956.48Z"/><g class="cls-134"><path class="cls-76" d="M2051.06,1543.88s58.3,78.06,58.06,273.53-11.61,306.57-105.46,364.31-197.18,92.72-197.18,92.72l34.13,61.61,474,31.12,236-23.27s-5.69-207.78-17.06-227.69-305.84-384.77-305.84-384.77L2122.15,1500Z"/></g><path class="cls-18" d="M2395.64,1726.13s91,25.77,103.8,13.59,89.11-118.34,93.85-135.4,24-51.16,70.69-61.62,77.19-1,79.09,18-101.44,66.59-101.44,66.59-72,151.12-107.59,177.67-158.78-18.65-158.78-18.65S2374.78,1755.52,2395.64,1726.13Z"/><g class="cls-135"><path class="cls-92" d="M2360.72,1767.68s81.21,29.07,122.29,31.28,53.72-13.27,77.73-45.81,54-66.05,54-66.05-35.71,113.44-45.19,122.61-85.32,25.28-85.32,25.28l-98.9-27.49-29.7-23.39Z"/></g><path class="cls-25" d="M2265.93,1664.35c.47-.88,7-4.53,7-4.53l128.56,55.41s10.12,70.78-32.23,89.74l-96.06-30S2246,1701.32,2265.93,1664.35Z"/><g class="cls-136"><path class="cls-137" d="M2265,1760.86s28.07,7.39,75,0,68.75-40.26,68.75-40.26l4.11,59.09-36,61.3-86.27-27.67Z"/></g><path class="cls-138" d="M2216.09,1466.31s-18.73-13-35,7.34"/><ellipse class="cls-93" cx="2198.59" cy="1490.49" rx="7.53" ry="9.98" transform="translate(-100.64 160.49) rotate(-4.09)"/><path class="cls-93" d="M2199.88,1480.89s6.73-.64,10-3.88c0,0-3.43,7.55-8.26,6.84Z"/><circle class="cls-139" cx="2181.09" cy="1518.05" r="10.6"/><path class="cls-139" d="M2224.2,1470.42c.48.47,9.74,17.53,14.06,32.7s-12.79,17.54-12.79,17.54Z"/><circle class="cls-140" cx="1674.94" cy="1060.44" r="288.96"/><circle class="cls-26" cx="1674.94" cy="1060.44" r="239.98"/><g class="cls-141"><circle class="cls-27" cx="1690.33" cy="1063.43" r="239.98"/><g class="cls-142"><rect class="cls-12" x="1683.66" y="1228.39" width="14.11" height="50.03" rx="6.91"/><rect class="cls-12" x="1683.66" y="847.51" width="14.11" height="50.03" rx="6.91"/><rect class="cls-12" x="1493.22" y="1037.95" width="14.11" height="50.03" rx="6.91" transform="translate(2563.24 -437.31) rotate(90)"/><rect class="cls-12" x="1874.09" y="1037.95" width="14.11" height="50.03" rx="6.91" transform="translate(2944.11 -818.18) rotate(90)"/></g></g><polygon class="cls-143" points="1692.76 874.43 1677.37 898.8 1689.56 1061.08 1706.88 898.26 1692.76 874.43"/><polygon class="cls-143" points="1841.12 1063.43 1816.35 1048.68 1689.46 1065.16 1817.67 1078.17 1841.12 1063.43"/><circle class="cls-12" cx="1689.46" cy="1064.08" r="15.39"/><path class="cls-144" d="M1857.3,790.24S2030.78,892.9,1978.16,1143s-304.1,238.75-304.1,238.75"/><rect class="cls-6" x="1621.65" y="391.39" width="9.6" height="153.19"/><rect class="cls-145" x="1600.84" y="539.35" width="51.23" height="54.97" rx="12.34"/><path class="cls-146" d="M1477.68,631.9l-15,6.17-39.84,208.29s415.08-6,421.06,0-48.79-208.29-48.79-208.29L1773.6,634Z"/><path class="cls-147" d="M2026.35,631.9l-15,6.17L1971.5,846.36s415.08-6,421.07,0-48.79-208.29-48.79-208.29L2322.27,634Z"/><path class="cls-12" d="M1580.64,634s10.84,29.91,44.69,29.91,40.57-22.43,40.57-29.91Z"/><rect class="cls-148" x="1457.82" y="625.73" width="332.43" height="12.34"/><path class="cls-145" d="M1625.23,580l-163.91,40.19c-5.81,1.43-4.78,10,1.21,10h324c6,0,7-8.53,1.23-10l-160-40.2A5,5,0,0,0,1625.23,580Z"/><rect class="cls-6" x="2170.32" y="391.39" width="9.6" height="153.19"/><rect class="cls-145" x="2149.5" y="539.35" width="51.23" height="54.97" rx="12.34"/><path class="cls-12" d="M2129.31,634s10.84,29.91,44.68,29.91,40.58-22.43,40.58-29.91Z"/><rect class="cls-148" x="2006.48" y="625.73" width="332.43" height="12.34"/><path class="cls-145" d="M2173.9,580,2010,620.23c-5.82,1.43-4.78,10,1.21,10h323.94c6,0,7-8.53,1.24-10l-160-40.2A5,5,0,0,0,2173.9,580Z"/><path class="cls-149" d="M1642.78,391.39S2137,679.88,2472.62,401.88"/></g><g id="Capa_2" data-name="Capa 2"><polygon class="cls-150" points="2943.99 1385.69 3177.41 1426.85 3177.41 1660.27 2943.99 1619.11 2943.99 1385.69"/><path d="M3100.79,1595.7c4.7,8.5,10.81,15.22,21.63,17.13,9.09,1.6,14.9-1.92,14.9-8.19,0-7.52-6-11.24-16-17.38l-5.48-3.32c-15.83-9.53-26.35-19.83-26.35-37.69,0-16.45,12.54-26.77,32.13-23.31,13.94,2.46,24,9.08,31.19,23.06l-17.08,8c-3.76-7.41-7.82-10.78-14.11-11.89s-10.5,2.22-10.5,7.55c0,6.58,4.07,10,13.49,15.69l5.48,3.32c18.64,11.28,29.16,21.28,29.16,39.6,0,19.75-15.52,27.83-36.35,24.16-20.37-3.6-33.53-15.62-40-29.48Zm-77.49-11.77c3.45,6.72,6.58,12.45,14.12,13.77,7.2,1.27,11.75-.74,11.75-11.71v-74.58l21.93,3.87v74.88c0,22.71-13.31,30.7-32.75,27.27-17.56-3.09-27.73-14-32.9-25.84Z"/><g id="Layer_1-2" data-name="Layer 1"><g id="svg_120-2" data-name="svg 120"><path id="svg_121-2" data-name="svg 121" class="cls-116" d="M2917.56,1724.22c-1.15,0-2.33,0-3.52-.08l-2-.1-.28-22.6,2.43.34a17.36,17.36,0,0,0,1.92.09c6.18,0,20.8-2.39,23.22-24.53.47-20.89-.3-54.16-4.35-60.46l-.17-.26-.08-.29c0-.07-2.39-7.56-7.77-7.56-3.51,0-7.94,3-12.82,8.84l-.47.55-6.67,1.44-2.37-33,1.54-.54a58,58,0,0,1,17.6-2.82c11.84,0,32,4.56,34.39,35.09.18,2,4.34,49.27,2.95,65.45,0,1.61-.36,17.15-11.47,28.59C2942,1720.24,2931.23,1724.22,2917.56,1724.22Z"/><path id="svg_122-2" data-name="svg 122" d="M2923.78,1585.42c13.39,0,30.17,5.62,32.28,33.1,0,0,4.36,49.1,2.94,65.19,0,0,.32,38.35-41.44,38.35-1.11,0-2.25,0-3.42-.08l-.22-18.06a18.53,18.53,0,0,0,2.2.11c6.06,0,22.73-2.24,25.34-26.54,0,0,1.2-52.63-4.7-61.8,0,0-2.74-9.09-9.79-9.09-3.61,0-8.34,2.39-14.43,9.59l-3.59.78-2.08-28.85a56.5,56.5,0,0,1,16.91-2.7m0-4.33v0a61,61,0,0,0-18.3,2.94l-3.07,1.09.24,3.32,2.08,28.85.35,4.93,4.74-1,3.6-.77,1.4-.31.93-1.1c5.94-7,9.58-8.09,11.22-8.09,3.75,0,5.73,6,5.75,6.06l.18.58.32.5c.71,1.1,3.09,6.68,3.87,32.09.4,13.11.17,25.39.14,27-2.18,19.58-14.15,22.51-21.11,22.51a15,15,0,0,1-1.66-.08l-4.86-.67.08,5,.22,18.06,0,4.08,4,.19c1.22,0,2.43.08,3.61.08,14.26,0,25.56-4.19,33.6-12.47,11.47-11.81,12.06-27.78,12.08-30,1.38-16.4-2.74-63.4-2.95-65.76-2.49-32.24-23.93-37.06-36.49-37.06Z"/><path id="svg_123-2" data-name="svg 123" class="cls-116" d="M2835.74,1759c-16.08,0-55.11-2-70.16-20.25a2.22,2.22,0,0,1-.5-1.4l.3-141a2.13,2.13,0,0,1,1.83-2.13L2907,1574.56l.29,0a2.05,2.05,0,0,1,1.35.5,2.15,2.15,0,0,1,.76,1.56l7.07,156.62a2.21,2.21,0,0,1-.43,1.41c-5.13,6.9-22.64,23.07-74.28,24.21h0S2839.49,1759,2835.74,1759Z"/><path id="svg_124-2" data-name="svg 124" d="M2907.28,1576.7l7.06,156.62c-4.68,6.29-21.53,22.24-72.64,23.36-.11,0-2.33.11-6,.11-15,0-54-1.77-68.54-19.47l.3-141,139.78-19.58m0-4.32a3.77,3.77,0,0,0-.58,0L2766.92,1592a4.29,4.29,0,0,0-3.66,4.27l-.3,141a4.36,4.36,0,0,0,1,2.79c6.93,8.41,19.23,14.42,36.56,17.84a190.51,190.51,0,0,0,35.22,3.18c3.45,0,5.68-.09,6.1-.11,52.53-1.17,70.56-17.92,75.87-25.07a4.36,4.36,0,0,0,.86-2.81l-7.06-156.62a4.4,4.4,0,0,0-1.52-3.13,4.2,4.2,0,0,0-2.71-1Z"/><path id="svg_125-2" data-name="svg 125" class="cls-116" d="M2839.78,1790c-15.84,0-55.08-1.6-77.43-16.34a1.73,1.73,0,0,1-.43-.38c-.63-.72-5.91-7.77,1.51-32.54a2.14,2.14,0,0,1,2-1.53l.66,0a2.08,2.08,0,0,1,1.51.66,40.38,40.38,0,0,0,10,7.41c18.32,9.9,46.21,11,57.35,11,4,0,6.52-.13,6.8-.14,47.28-1.05,65.65-14.33,72.4-22.15a2.09,2.09,0,0,1,1.59-.74l.27,0a2.1,2.1,0,0,1,1.62,1.19c1.11,2.27,10.53,22.56,1.67,33.19l-.15.16c-.77.75-19.51,18.42-73.83,20.16-.06,0-2.07.08-5.51.08Z"/><path id="svg_126-2" data-name="svg 126" d="M2915.55,1737.4c.93,1.91,10,21.22,1.95,30.83,0,0-18.29,17.84-72.43,19.56,0,0-2,.08-5.45.08-14.45,0-54.16-1.4-76.27-16,0,0-5.33-6.14,2-30.47h.6a42.55,42.55,0,0,0,10.52,7.81c18.42,10,45.66,11.22,58.35,11.22,3.91,0,6.44-.12,6.9-.14,48.33-1.07,67.11-15,73.88-22.89m0-4.32a4.2,4.2,0,0,0-3.18,1.47c-3,3.45-8.81,8.48-19.71,12.81-13.21,5.25-30.39,8.15-51.08,8.6h-.12c-.28,0-2.77.14-6.69.14-11,0-38.47-1-56.37-10.72a38.34,38.34,0,0,1-9.47-7,4.16,4.16,0,0,0-3-1.31h-.11l-.6,0a4.25,4.25,0,0,0-3.94,3.06c-7.4,24.72-2.69,32.74-1.07,34.6a4.25,4.25,0,0,0,.87.77c22.82,15,62.55,16.68,78.57,16.68,3.49,0,5.53-.08,5.62-.08,55.08-1.76,74.39-20,75.18-20.76a3,3,0,0,0,.3-.32c9.55-11.44.53-31.62-1.37-35.55a4.25,4.25,0,0,0-3.25-2.37,3.39,3.39,0,0,0-.55,0Z"/><path id="svg_127-2" data-name="svg 127" class="cls-117" d="M2902.56,1717.41c.11,7.93-5.72,16.57-13,19.21-29,10.57-59.44,11.7-89.29,4.43-3.55-.86-7.12-1.74-10.6-2.89-7.31-2.43-13.38-10.9-13.5-18.83l-1-70.62c-.12-7.93-.3-20.9-.41-28.82l-1-70.62a14.26,14.26,0,0,1,13.75-14.63l35.26-.53,27.92-.43,35.25-.53c7.68-.12,10.56,6.27,10.68,14.2l3.79,70.62c.12,7.92,1,20.89,1.11,28.82Z"/><path id="svg_128-2" data-name="svg 128" class="cls-118" d="M2891.52,1691.19c.48,7.89.46,14.9-5.27,16.36-6.08,1.55-6.71-6.1-6.88-14-.44-21-.26-42.06-.3-63.08,0-7,0-18.48,0-25.49l-.09-62.47c0-7,.58-12.83,1.33-12.93l3.41-.47,2.71-.38,3.41-.47c.75-.11,1,5.55,1,12.56l.36,62.46c0,7,.1,18.49.11,25.5,0,12.77,0,25.55,0,38.33,0,8-.34,16.06.16,24A.62.62,0,0,0,2891.52,1691.19Z"/><path id="svg_129-2" data-name="svg 129" class="cls-12" d="M2890,1591.27s22,20.13,30.42-17.26c0,0,13.52-5.76,4.51-18.41,0,0,4.51-15-8.45-13.23,0,0,1.69-19.56-16.9-16.11,0,0-6.2-11.5-18-2.3,0,0,2.47-11.33-2.81-17.46,0,0-20.85-21.66-43.38,1.36,0,0-11.83-9.21-21.41,3.45,0,0-9.57-6.91-18.59,4.6,0,0-9.57-16.11-20.28,0,0,0-25.35-3.45-22,22.43,0,0-19.71,10.93-9.57,25.31,0,0-12.31,9.15-3.38,19,0,0-7.52,11.06,6.76,20.13,0,0,2.25,12.08,11.27,8.63,0,0-2.82,18.41,9,21.28,0,0,2.25,39.12,25.91,35.67,0,0,18,.57,21.41-24.74,0,0,20.84-12.65,10.7-29.91,0,0,19.7,6.55,26.46-12.43,0,0,13.66,8.91,19.3-1.44C2871,1599.83,2888.33,1610.25,2890,1591.27Z"/><path id="svg_130-2" data-name="svg 130" d="M2790.24,1670.73c-20.34,0-24.34-29.23-25-36.4-9-3.3-9.66-14.63-9.39-20.18l-.7,0c-6.79,0-9.35-7.38-10.05-10.06-4.88-3.29-7.81-7.2-8.71-11.64a15.44,15.44,0,0,1,1.25-9.58,12.48,12.48,0,0,1-2.75-9c.46-4.89,3.85-8.78,5.89-10.72a15.13,15.13,0,0,1-1.86-11.12c1.7-7.61,9-13,12-14.91-.68-7.16.74-12.84,4.23-16.91,5-5.83,12.88-6.7,17.14-6.7.71,0,1.34,0,1.83.06,3.39-4.69,7.1-7.06,11-7.06,4.72,0,8.41,3.46,10.41,5.89,4.27-4.4,8.55-5.39,11.54-5.39a15,15,0,0,1,6.39,1.47c3.52-4,7.77-6.1,12.39-6.1a18.86,18.86,0,0,1,9.26,2.65c6.95-6.64,14.45-10,22.32-10,13.17,0,22.45,9.48,22.84,9.88l.08.09c3.66,4.25,4.09,10.45,3.86,14.68a14,14,0,0,1,6.11-1.52c5.38,0,8.8,3.66,10.28,5.68,6-.8,10.62.61,13.79,4.14,3.36,3.75,4.11,9,4.24,12,4.06,0,6.22,1.86,7.32,3.39,2.73,3.77,1.85,9.36,1.3,11.73,2.67,4.08,3.51,8,2.51,11.64-1.32,4.81-5.53,7.6-7.49,8.67-4.6,19.26-13.1,23.34-19.48,23.34a21.32,21.32,0,0,1-11.23-3.74c-2,8.38-7.6,9.74-11,9.74h0a21.75,21.75,0,0,1-8.79-2.21,11,11,0,0,1-9.11,4.37,23.06,23.06,0,0,1-9.86-2.68c-3.74,8.17-10.72,12.63-19.88,12.63a28.22,28.22,0,0,1-3.88-.26,19.14,19.14,0,0,1,.58,11.15c-2.23,9-10.36,15.21-13.08,17.06-3.75,24.73-21,25.6-23.22,25.61A22.52,22.52,0,0,1,2790.24,1670.73Zm-32-61.49a2.08,2.08,0,0,1,1.34.48,2.19,2.19,0,0,1,.75,2c0,.16-2.36,16.47,7.42,18.85a2.15,2.15,0,0,1,1.62,2c0,.34,2.2,33.85,20.91,33.85a17.76,17.76,0,0,0,2.59-.19,1.53,1.53,0,0,1,.37,0c1.68,0,16.27-.64,19.24-22.87a2.2,2.2,0,0,1,1-1.57c.1,0,9.83-6.09,12-15a15.68,15.68,0,0,0-2-12,2.21,2.21,0,0,1,.16-2.46,2.12,2.12,0,0,1,2.31-.71,24.94,24.94,0,0,0,7,1c8.32,0,14-4.07,16.84-12.1a2.13,2.13,0,0,1,1.31-1.31,2.06,2.06,0,0,1,1.82.23s5,3.22,9.77,3.22a6.9,6.9,0,0,0,6.53-3.89,2.1,2.1,0,0,1,2.93-.82s4.33,2.56,8.44,2.56h0c1.64,0,6.55,0,7.38-9.45a2.15,2.15,0,0,1,1.34-1.81,2.06,2.06,0,0,1,2.19.4s5.41,4.86,11.36,4.86c8.95,0,13.42-11.42,15.58-21a2.15,2.15,0,0,1,1.25-1.51s4.92-2.17,6.06-6.37c.69-2.56-.13-5.51-2.45-8.77a2.14,2.14,0,0,1-.31-1.9c.49-1.66,1.38-6.51-.38-8.94-1-1.4-3-1.89-5.78-1.51a2.09,2.09,0,0,1-1.74-.59,2.18,2.18,0,0,1-.64-1.75c0-.06.54-7.14-3.14-11.22-1.78-2-4.24-2.94-7.52-2.94a21.41,21.41,0,0,0-3.75.37,2.09,2.09,0,0,1-2.23-1.08c-.11-.19-2.68-4.75-7.43-4.75-2.29,0-4.8,1-7.46,3.12a2.11,2.11,0,0,1-2.43.11,2.17,2.17,0,0,1-.92-2.29c0-.1,2.14-10.28-2.3-15.52-.61-.61-8.8-8.55-19.78-8.55-7.17,0-14.08,3.35-20.55,10a2.09,2.09,0,0,1-2.78.2,15.13,15.13,0,0,0-8.25-2.79c-3.83,0-7.27,2-10.2,5.84a2.08,2.08,0,0,1-2.9.44,10.89,10.89,0,0,0-5.68-1.65c-3.62,0-7,2-10,5.84a2.09,2.09,0,0,1-3.47-.23c0-.06-3.72-6.12-8.45-6.12-2.75,0-5.53,2.09-8.26,6.21a2.09,2.09,0,0,1-2,.93,23.09,23.09,0,0,0-2.59-.13c-3.54,0-10.06.68-13.95,5.22-2.88,3.36-3.91,8.38-3.06,14.92a2.16,2.16,0,0,1-1.09,2.19c-.09,0-9.44,5.34-11.11,12.83-.7,3.13,0,6.18,2.25,9.31a2.19,2.19,0,0,1-.47,3s-5.26,4-5.73,9c-.22,2.35.65,4.57,2.65,6.78a2.18,2.18,0,0,1,.19,2.7,11.27,11.27,0,0,0-1.39,7.79c.72,3.44,3.25,6.56,7.53,9.28a2.13,2.13,0,0,1,1,1.43c0,.07,1.49,7.49,6.11,7.49a6.56,6.56,0,0,0,2.33-.48A1.91,1.91,0,0,1,2758.2,1609.24Z"/><path id="svg_131-2" data-name="svg 131" class="cls-118" d="M2819.47,1718.72c3.16,0,3.16-5,0-5s-3.16,5,0,5Z"/><path id="svg_132-2" data-name="svg 132" class="cls-118" d="M2833.59,1682.69c3.16,0,3.16-5,0-5s-3.16,5,0,5Z"/><path id="svg_133-2" data-name="svg 133" class="cls-118" d="M2851.94,1636.56c3.16,0,3.16-5,0-5s-3.16,5,0,5Z"/><path id="svg_134-2" data-name="svg 134" class="cls-118" d="M2799.71,1687c3.16,0,3.16-5,0-5s-3.16,5,0,5Z"/><path id="svg_135-2" data-name="svg 135" class="cls-118" d="M2866.05,1718c3.16,0,3.16-5,0-5s-3.16,5,0,5Z"/><path id="svg_136-2" data-name="svg 136" class="cls-118" d="M2856,1660.87a3.4,3.4,0,0,0-.22-2.92,2.82,2.82,0,0,0-4.92,0,3.4,3.4,0,0,0-.22,2.92,2.77,2.77,0,0,0,5.36,0Z"/><path id="svg_137-2" data-name="svg 137" class="cls-118" d="M2823.35,1661.09l.75.67a3.51,3.51,0,0,0,2.43,1,3.39,3.39,0,0,0,2.43-1,3.54,3.54,0,0,0,1-2.48,3.67,3.67,0,0,0-1-2.48c-.22-.25-.45-.5-.67-.76a3.46,3.46,0,0,0-4.94,0,3.65,3.65,0,0,0,0,5Z"/><path id="svg_138-2" data-name="svg 138" class="cls-118" d="M2837.12,1709.35c3.16,0,3.16-5,0-5s-3.17,5,0,5Z"/><path id="svg_139-2" data-name="svg 139" class="cls-118" d="M2855.61,1693.61a3.31,3.31,0,0,0-1.32-1.93,2.6,2.6,0,0,0-1.85-.23,3,3,0,0,0-1.34.85,2.26,2.26,0,0,0,0,3.15,3.11,3.11,0,0,0,4.5,0l-1.55.65h.71a2.2,2.2,0,0,0,2.1-1.63,2.25,2.25,0,0,0-1.52-2.74c.47.1.31.16.11.07a5.7,5.7,0,0,0-.72-.29l1.69,1.71a3.27,3.27,0,0,0-1.37-1.83l.57.45-.1-.08a3.11,3.11,0,0,0-1.36-.81,3.29,3.29,0,0,0-2.36.32,3.7,3.7,0,0,0-.84.66,3.75,3.75,0,0,0-1,1.72,3.56,3.56,0,0,0,.9,3.47,3.5,3.5,0,0,0,4.23.56l.18-.1-1.8.49a4.14,4.14,0,0,0,3.76-2.58l-2.31,1.8a4.57,4.57,0,0,0,2.6-2,7.16,7.16,0,0,0,.48-1.22l-.42,1h0c-.49.5-1,1-1.48,1.51h0l-6.21-3.64a.71.71,0,0,1,0,.2,4.2,4.2,0,0,0,4.15,4.23,4.18,4.18,0,0,0,4.15-4.23,7.22,7.22,0,0,0-.17-1.32,4.25,4.25,0,0,0-2.89-2.94,4.07,4.07,0,0,0-4,1.08,4.24,4.24,0,0,0-1.22,3,4.4,4.4,0,0,0,1.28,3.25c-.32-1.27-.66-2.55-1-3.83a5.6,5.6,0,0,1-.12.59,3.74,3.74,0,0,0,0,2.36v-1.94l0,.1.36-.86a1,1,0,0,0,0,.1l6.39.85a4,4,0,0,0-.95-1.69,3.77,3.77,0,0,0-.88-.69c.48,1.18,1,2.36,1.42,3.54l0-.17-1.29,1.72a3.22,3.22,0,0,0,1.36-1.83l-1.68,1.72a7.76,7.76,0,0,0,.72-.3c.2-.09.36,0-.11.07a2.23,2.23,0,0,0-.58-4.37,4.65,4.65,0,0,0-1.29.08,2.25,2.25,0,0,0-1,.58c-.22.22.53-.38.24-.2s.57-.19.2-.08a1.27,1.27,0,0,1,1.24.27v3.15a.57.57,0,0,0,.11-.11,1.56,1.56,0,0,1-1.15.47l-1.1-.3-.67-.69c-.1-.37-.2-.75-.29-1.12,0,.21,0,.09.07-.38,0,.1-.05.19-.07.29a2.36,2.36,0,1,0,4.53,0Z"/><path id="svg_140-2" data-name="svg 140" class="cls-118" d="M2793.84,1703.62a3.75,3.75,0,0,0-1.84,2.43,5.93,5.93,0,0,0,.05,2.48,3.6,3.6,0,0,0,.91,1.6,3.48,3.48,0,0,0,4.31.57,3.48,3.48,0,0,0,1.63-2.17,3.94,3.94,0,0,1,.1-.47l-.36.89,0-.07-.57.75.05-.05-.74.58h0l-.87.37.07,0-1,.14h0a3.76,3.76,0,0,0,3.55-4.77,3.75,3.75,0,0,0-1.69-2.24,3.62,3.62,0,0,0-3.72,0Z"/><path id="svg_141-2" data-name="svg 141" class="cls-118" d="M2869.58,1612.09a.38.38,0,0,0,0-.75.38.38,0,0,0,0,.75Z"/><path id="svg_142-2" data-name="svg 142" class="cls-118" d="M2868.17,1617.82c3.16,0,3.16-5,0-5s-3.16,5,0,5Z"/></g></g></g></svg>