<svg xmlns="http://www.w3.org/2000/svg" id="icon-close-session" viewBox="0 0 25 25"><title>V2_Iconos topbar</title><path d="M4.9,3.8,4.3,4C2.4,5.4,1.3,8.3,1,9.2a11.9,11.9,0,0,0-.4,5.6,12.1,12.1,0,0,0,16,9.5,11.8,11.8,0,0,0,7.7-9A12,12,0,0,0,20.7,3.9a.8.8,0,0,0-.7-.1.7.7,0,0,0-.4.6c0,.4.5.9.9,1.3l.7.8a10.9,10.9,0,0,1,2.2,6.2,11.2,11.2,0,0,1-5.5,9.6A10.7,10.7,0,0,1,7,22.1a10.8,10.8,0,0,1-5.3-9.5A11,11,0,0,1,4,6.3c.1-.2.4-.4.6-.6s.9-.9.9-1.3a.5.5,0,0,0-.3-.5Z"></path><path d="M12.5,9a.8.8,0,0,1-.7-.8V.8a.8.8,0,0,1,.7-.8.8.8,0,0,1,.8.8V8.2A.8.8,0,0,1,12.5,9Z"></path></svg>